<svg class="main-svg" xmlns="http://www.w3.org/2000/svg" xmlns:xlink="http://www.w3.org/1999/xlink" width="700" height="500" style="" viewBox="0 0 700 500"><rect x="0" y="0" width="700" height="500" style="fill: rgb(255, 255, 255); fill-opacity: 1;"/><defs id="defs-0e7f36"><g class="clips"><clipPath id="clip0e7f36xyplot" class="plotclip"><rect width="559" height="390"/></clipPath><clipPath class="axesclip" id="clip0e7f36x"><rect x="50" y="0" width="559" height="500"/></clipPath><clipPath class="axesclip" id="clip0e7f36y"><rect x="0" y="60" width="700" height="390"/></clipPath><clipPath class="axesclip" id="clip0e7f36xy"><rect x="50" y="60" width="559" height="390"/></clipPath></g><g class="gradients"/></defs><g class="bglayer"><rect class="bg" x="50" y="60" width="559" height="390" style="fill: rgb(229, 236, 246); fill-opacity: 1; stroke-width: 0;"/></g><g class="layer-below"><g class="imagelayer"/><g class="shapelayer"/></g><g class="cartesianlayer"><g class="subplot xy"><g class="layer-subplot"><g class="shapelayer"/><g class="imagelayer"/></g><g class="gridlayer"><g class="x"><path class="xgrid crisp" transform="translate(161.8,0)" d="M0,60v390" style="stroke: rgb(255, 255, 255); stroke-opacity: 1; stroke-width: 1px;"/><path class="xgrid crisp" transform="translate(273.6,0)" d="M0,60v390" style="stroke: rgb(255, 255, 255); stroke-opacity: 1; stroke-width: 1px;"/><path class="xgrid crisp" transform="translate(385.4,0)" d="M0,60v390" style="stroke: rgb(255, 255, 255); stroke-opacity: 1; stroke-width: 1px;"/><path class="xgrid crisp" transform="translate(497.2,0)" d="M0,60v390" style="stroke: rgb(255, 255, 255); stroke-opacity: 1; stroke-width: 1px;"/></g><g class="y"><path class="ygrid crisp" transform="translate(0,375.83)" d="M50,0h559" style="stroke: rgb(255, 255, 255); stroke-opacity: 1; stroke-width: 1px;"/><path class="ygrid crisp" transform="translate(0,195.83)" d="M50,0h559" style="stroke: rgb(255, 255, 255); stroke-opacity: 1; stroke-width: 1px;"/><path class="ygrid crisp" transform="translate(0,105.83)" d="M50,0h559" style="stroke: rgb(255, 255, 255); stroke-opacity: 1; stroke-width: 1px;"/></g></g><g class="zerolinelayer"><path class="xzl zl crisp" transform="translate(50,0)" d="M0,60v390" style="stroke: rgb(255, 255, 255); stroke-opacity: 1; stroke-width: 2px;"/><path class="yzl zl crisp" transform="translate(0,285.83000000000004)" d="M50,0h559" style="stroke: rgb(255, 255, 255); stroke-opacity: 1; stroke-width: 2px;"/></g><path class="xlines-below"/><path class="ylines-below"/><g class="overlines-below"/><g class="xaxislayer-below"/><g class="yaxislayer-below"/><g class="overaxes-below"/><g class="plot" transform="translate(50,60)" clip-path="url('#clip0e7f36xyplot')"><g class="scatterlayer mlayer"><g class="trace scatter traced6c3d0" style="stroke-miterlimit: 2; opacity: 1;"><g class="fills"/><g class="errorbars"/><g class="lines"><path class="js-line" d="M0,224.03L2.18,222.47L2.24,222.39L4.86,220L4.92,219.98L9,219.32L9.06,219.32L17.16,217.77L17.22,217.72L20.63,214L20.68,213.99L26.78,213.31L26.83,213.31L32.48,211.96L32.53,211.91L37.17,208.43L37.23,208.42L48.47,206.29L48.52,206.23L51.6,202.81L51.65,202.79L56.35,202.18L56.4,202.18L63.67,200.67L63.73,200.62L67.75,197.13L67.81,197.12L73.56,196.45L73.62,196.45L79.1,195.12L79.15,195.07L80.89,192.65L80.94,192.59L82.96,191.48L83.01,191.47L89.27,190.76L89.33,190.76L94.58,189.43L94.64,189.38L98.55,185.76L98.61,185.75L104.81,185.06L104.87,185.05L109.51,184.04L109.56,184L111.35,181.95L111.41,181.88L113.42,180.38L113.48,180.37L117.22,179.76L117.28,179.75L125.16,178.56L125.22,178.52L126.61,176.6L126.67,176.49L128.46,174.64L128.51,174.62L132.59,173.96L132.65,173.96L140.92,172.38L140.98,172.34L145.62,168.86L145.68,168.85L156.97,166.67L157.02,166.6L160.04,163.22L160.1,163.21L164.79,162.6L164.85,162.6L172.12,161.1L172.17,161.05L176.31,157.53L176.36,157.52L182.51,156.83L182.57,156.83L187.6,155.5L187.66,155.45L191.57,151.87L191.63,151.86L197.22,151.23L197.27,151.23L202.64,150.18L202.69,150.14L204.26,148.14L204.31,148.04L206.38,146.34L206.44,146.32L211.41,145.63L211.47,145.63L218.4,144.13L218.46,144.08L222.65,140.63L222.71,140.61L234.33,138.43L234.39,138.36L237.35,134.91L237.41,134.9L242.1,134.3L242.16,134.29L248.92,133.15L248.98,133.12L250.99,131.07L251.05,131.01L253.17,129.52L253.23,129.5L257.98,128.79L258.03,128.79L264.74,127.66L264.8,127.63L266.25,125.71L266.31,125.61L268.04,123.84L268.1,123.82L271.34,123.2L271.39,123.2L280.51,121.56L280.56,121.51L284.87,117.92L284.92,117.9L296.21,115.71L296.27,115.65L299.51,112.4L299.57,112.39L304.38,111.75L304.43,111.74L310.92,110.61L310.97,110.58L312.54,108.7L312.59,108.61L314.49,106.88L314.55,106.86L318.74,106.17L318.8,106.16L326.18,104.98L326.23,104.95L328.02,102.94L328.08,102.85L330.09,101.23L330.15,101.21L334.9,100.5L334.95,100.5L342.28,99.01L342.33,98.96L346.02,95.27L346.08,95.26L351.72,94.62L351.78,94.62L357.54,93.26L357.59,93.21L362.23,89.7L362.29,89.69L373.58,87.58L373.64,87.51L376.6,84.04L376.65,84.02L382.97,83.29L383.03,83.29L388.28,82.24L388.34,82.2L390.24,80.11L390.29,80.04L392.53,78.54L392.59,78.52L398.73,77.74L398.79,77.74L404.27,76.41L404.32,76.36L408.41,72.65L408.46,72.64L414.39,72.01L414.44,72.01L419.7,70.68L419.75,70.63L423.67,67.05L423.72,67.04L429.98,66.33L430.04,66.33L435.01,65.04L435.07,64.99L439.37,61.4L439.43,61.39L450.83,59.25L450.89,59.19L453.96,55.77L454.02,55.76L458.77,55.14L458.83,55.14L465.98,53.62L466.04,53.57L470.62,50.13L470.68,50.12L481.97,47.95L482.03,47.88L484.99,44.48L485.04,44.47L489.74,43.86L489.8,43.86L497.12,42.31L497.17,42.26L501.59,38.76L501.65,38.74L512.83,36.53L512.88,36.46L516.07,33.22L516.12,33.2L522.61,32.43L522.67,32.43L527.92,31.09L527.98,31.04L531.94,27.48L532,27.47L538.15,26.78L538.21,26.78L543.29,25.45L543.35,25.4L547.32,21.83L547.37,21.82L553.52,21.14L553.58,21.13L558.33,20.1L558.39,20.06L559,19.5" style="vector-effect: non-scaling-stroke; fill: none; stroke: rgb(99, 110, 250); stroke-opacity: 1; stroke-width: 2px; opacity: 1;"/></g><g class="points"/><g class="text"/></g><g class="trace scatter trace05c7d4" style="stroke-miterlimit: 2; opacity: 1;"><g class="fills"/><g class="errorbars"/><g class="lines"><path class="js-line" d="M0,224.03L3.8,223.66L3.86,223.67L19.29,228.12L19.34,228.1L34.94,223.68L34.99,223.7L42.71,226.28L42.76,226.3L50.25,228.16L50.31,228.14L57.41,225.7L57.47,225.68L65.35,223.5L65.4,223.51L70.66,225.19L70.71,225.21L81.11,228.13L81.17,228.12L96.82,223.59L96.87,223.61L103.97,226.05L104.03,226.07L111.97,228.09L112.02,228.08L119.57,225.54L119.63,225.52L127.28,223.42L127.34,223.43L143.38,227.98L143.44,227.96L151.15,225.38L151.21,225.36L158.7,223.49L158.76,223.51L166.81,226.29L166.86,226.31L174.13,228.1L174.18,228.09L181.68,225.56L181.73,225.54L189.61,223.54L189.67,223.55L205.38,228.05L205.43,228.03L220.81,223.67L220.86,223.68L228.18,226.17L228.24,226.19L236.07,228.18L236.12,228.16L243.28,225.71L243.33,225.69L251.49,223.59L251.55,223.6L256.86,225.29L256.92,225.31L266.81,228.24L266.87,228.23L275.2,225.38L275.25,225.36L282.57,223.56L282.63,223.57L298.28,228.05L298.34,228.03L313.71,223.62L313.77,223.64L321.76,226.41L321.82,226.43L328.52,228.15L328.58,228.14L336.18,225.59L336.24,225.57L344.23,223.5L344.29,223.52L351.39,225.96L351.44,225.98L360,227.98L360.05,227.97L375.59,223.55L375.65,223.57L391.13,228L391.19,227.98L398.51,225.49L398.57,225.47L406,223.46L406.06,223.47L413.44,225.97L413.49,225.99L421.71,228.12L421.77,228.1L430.04,225.26L430.09,225.24L437.08,223.56L437.14,223.58L444.63,226.11L444.68,226.13L452.62,228.16L452.68,228.14L468.39,223.68L468.44,223.7L476.04,226.25L476.1,226.27L483.98,228.09L484.04,228.07L499.47,223.66L499.52,223.67L514.89,228.04L514.95,228.02L521.77,225.65L521.83,225.63L529.65,223.49L529.71,223.5L537.14,226.01L537.2,226.03L545.3,228.11L545.36,228.1L559,223.47" style="vector-effect: non-scaling-stroke; fill: none; stroke: rgb(239, 85, 59); stroke-opacity: 1; stroke-width: 2px; opacity: 1;"/></g><g class="points"/><g class="text"/></g><g class="trace scatter trace131d44" style="stroke-miterlimit: 2; opacity: 1;"><g class="fills"/><g class="errorbars"/><g class="lines"><path class="js-line" d="M0,224.03L2.12,222.53L2.18,222.46L4.92,219.95L4.98,219.93L8.89,219.26L8.94,219.26L15.99,219.16L16.04,219.18L17.61,220.25L17.66,220.34L20.07,222.97L20.12,222.99L24.6,223.02L24.65,223.01L31.36,221.87L31.42,221.85L33.43,220.21L33.48,220.13L36.28,217.76L36.34,217.74L40.47,216.97L40.53,216.97L47.24,216.92L47.29,216.93L48.91,218.22L48.97,218.31L51.15,220.67L51.2,220.69L54.73,220.95L54.78,220.95L62.38,220.2L62.44,220.18L64.34,218.77L64.4,218.69L66.97,216.24L67.02,216.22L70.77,215.68L70.83,215.68L77.87,215.98L77.92,215.99L79.71,217.25L79.77,217.33L82.34,219.88L82.4,219.9L86.25,220.33L86.31,220.33L93.19,220L93.24,219.98L95.09,218.78L95.14,218.71L97.77,216.06L97.83,216.04L102.3,215.69L102.35,215.69L108.95,216.43L109.01,216.46L110.85,218.06L110.91,218.14L113.25,220.29L113.31,220.31L117.5,221L117.56,221L125.22,220.73L125.27,220.7L126.61,218.97L126.67,218.87L128.35,217.26L128.4,217.24L132.37,217.07L132.43,217.08L139.92,218.28L139.97,218.31L141.87,219.89L141.93,219.97L144.5,222.26L144.56,222.28L148.47,223.09L148.53,223.1L155.63,223.24L155.68,223.23L157.3,222.04L157.36,221.95L159.59,219.47L159.65,219.46L163.12,219.21L163.17,219.21L171.72,220.4L171.78,220.43L173.68,222.67L173.74,222.75L175.81,224.07L175.86,224.09L181.17,224.58L181.23,224.58L187.21,223.85L187.27,223.81L188.94,221.76L189,221.67L190.95,220.26L191.01,220.24L196.04,219.81L196.1,219.81L202.69,220.53L202.75,220.57L204.26,222.44L204.31,222.53L206.27,224.07L206.33,224.08L209.79,224.38L209.85,224.38L217.17,223.63L217.23,223.61L219.24,222.02L219.3,221.94L221.76,219.66L221.81,219.64L226.23,218.87L226.28,218.86L233.89,219.1L233.94,219.14L235.17,220.87L235.23,220.98L236.85,222.5L236.9,222.52L240.65,222.66L240.71,222.65L248.42,221.43L248.48,221.41L250.6,219.55L250.66,219.47L253.06,217.43L253.12,217.41L257.36,216.62L257.42,216.62L263.96,216.59L264.02,216.6L265.8,217.9L265.86,217.99L268.15,220.41L268.21,220.43L272.51,220.69L272.57,220.69L280.23,219.56L280.28,219.52L282.07,217.36L282.13,217.28L284.25,215.93L284.31,215.91L289.51,215.45L289.56,215.45L295.6,216.18L295.66,216.21L297.28,218.19L297.33,218.27L299.23,219.73L299.29,219.75L304.26,220.17L304.32,220.17L310.92,219.43L310.97,219.39L312.48,217.68L312.54,217.59L314.44,215.89L314.49,215.87L318.63,215.42L318.69,215.42L325.95,216.15L326.01,216.18L327.69,217.77L327.74,217.85L329.92,219.88L329.98,219.9L333.95,220.51L334,220.51L341.6,220.21L341.66,220.18L343.11,218.68L343.17,218.59L345.07,216.62L345.13,216.6L348.54,216.3L348.59,216.31L355.64,217.06L355.69,217.08L358.15,218.56L358.21,218.62L361.28,221.41L361.34,221.43L367.15,222.37L367.21,222.38L373.19,222.05L373.24,222.01L374.53,220.11L374.59,220.01L376.15,218.65L376.21,218.64L379.9,218.49L379.95,218.49L387.95,219.69L388,219.72L389.73,221.33L389.79,221.4L392.08,223.47L392.14,223.49L396.33,224.19L396.39,224.19L402.26,224.18L402.31,224.17L404.55,223.18L404.6,223.12L407.85,220.05L407.9,220.04L413.66,219.78L413.72,219.79L419.14,220.53L419.19,220.56L420.82,222.36L420.87,222.45L422.83,224.13L422.88,224.15L427.02,224.59L427.08,224.59L434.23,223.85L434.29,223.82L436.08,222.11L436.13,222.03L438.37,220.06L438.42,220.04L443.29,219.37L443.34,219.37L450.11,219.69L450.16,219.72L451.5,221.21L451.56,221.32L453.46,223.24L453.52,223.26L457.32,223.46L457.37,223.45L463.63,222.71L463.69,222.69L466.32,221.33L466.37,221.28L470.06,218.11L470.12,218.09L475.6,217.25L475.65,217.25L481.02,217.37L481.08,217.39L482.47,218.75L482.53,218.85L484.49,221L484.54,221.01L487.95,221.24L488.01,221.24L495.33,220.5L495.39,220.48L497.68,219.03L497.73,218.96L500.7,216.29L500.75,216.27L505.34,215.69L505.39,215.69L511.65,216.05L511.71,216.07L513.33,217.49L513.39,217.58L515.51,219.76L515.57,219.77L518.75,220.18L518.81,220.18L525.96,219.85L526.02,219.84L528.37,218.56L528.42,218.49L531.27,215.72L531.33,215.71L535.47,215.27L535.52,215.27L541.84,215.64L541.89,215.66L543.74,216.81L543.8,216.88L546.65,219.65L546.7,219.66L550.84,220.11L550.89,220.11L558.33,219.4L558.39,219.37L559,218.84" style="vector-effect: non-scaling-stroke; fill: none; stroke: rgb(0, 204, 150); stroke-opacity: 1; stroke-width: 2px; opacity: 1;"/></g><g class="points"/><g class="text"/></g><g class="trace scatter traceb36919" style="stroke-miterlimit: 2; opacity: 1;"><g class="fills"/><g class="errorbars"/><g class="lines"><path class="js-line" d="M0,224.03L26.05,215.3L26.11,215.29L33.93,213.09L33.99,213.06L52.32,202.42L52.38,202.39L58.42,198.35L58.47,198.31L68.31,191.17L68.37,191.13L113.98,157.48L114.04,157.45L124.38,150.83L124.43,150.79L131.81,147.28L131.87,147.27L136.73,147.16L136.79,147.17L141.87,149.18L141.93,149.22L146.79,152.94L146.85,152.99L167.59,171.04L167.64,171.1L174.02,177.95L174.07,178.02L195.59,200.54L195.65,200.59L205.6,209.75L205.66,209.81L216.89,220.96L216.95,221.02L228.63,231.65L228.69,231.69L245.35,243.6L245.4,243.62L250.38,246.48L250.43,246.52L256.8,249.77L256.86,249.79L265.58,252.78L265.64,252.78L271.39,252.76L271.45,252.75L279.56,250.58L279.61,250.55L302.2,242.93L302.25,242.92L316.51,238.82L316.56,238.8L332.21,233.16L332.27,233.15L339.48,232.21L339.54,232.21L346.24,232.95L346.3,232.97L353.23,235.79L353.29,235.82L360,240.21L360.05,240.25L371.51,247.44L371.57,247.46L377.6,250.73L377.66,250.77L384.42,256.88L384.48,256.94L425.4,298.05L425.45,298.11L458.21,329.96L458.27,330.01L462.96,333.64L463.02,333.68L488.57,350.17L488.62,350.2L508.52,358.82L508.58,358.83L519.87,361.44L519.93,361.45L531.5,363.57L531.55,363.58L541.11,365.96L541.17,365.98L559,370.5" style="vector-effect: non-scaling-stroke; fill: none; stroke: rgb(171, 99, 250); stroke-opacity: 1; stroke-width: 2px; opacity: 1;"/></g><g class="points"/><g class="text"/></g><g class="trace scatter tracec1070d" style="stroke-miterlimit: 2; opacity: 1;"><g class="fills"/><g class="errorbars"/><g class="lines"><path class="js-line" d="M0,224.03L5.53,222.87L5.59,222.87L15.2,223.18L15.26,223.15L19.62,220.55L19.68,220.51L29.24,213.05L29.29,213L36.17,208.29L36.22,208.26L45.11,203.49L45.17,203.44L57.91,192.59L57.97,192.57L64.96,188.56L65.01,188.51L74.29,181.82L74.35,181.79L83.79,176.41L83.85,176.37L108.11,161.56L108.17,161.53L113.81,156.76L113.87,156.7L121.14,150.86L121.19,150.83L128.91,145.44L128.96,145.39L136.9,136.9L136.95,136.84L143.05,131.32L143.1,131.3L146.23,130.82L146.29,130.82L154.95,131.38L155.01,131.41L158.2,134.15L158.25,134.2L163.84,138.73L163.9,138.76L169.71,140.36L169.77,140.37L175.3,140.91L175.36,140.91L184.64,139.29L184.69,139.26L197.83,130.83L197.89,130.78L204.82,125.29L204.87,125.27L216.33,120.27L216.39,120.27L222.31,119.92L222.37,119.91L225.5,120.1L225.56,120.13L228.52,122.22L228.58,122.27L234.11,126.12L234.17,126.14L244.17,131.51L244.23,131.56L249.37,135.07L249.43,135.09L257.7,139.42L257.75,139.46L267.71,147.13L267.76,147.18L279.44,156.5L279.5,156.54L295.88,167.93L295.93,167.98L308.06,178.01L308.12,178.06L319.97,186.85L320.03,186.89L333.56,196.53L333.61,196.58L353.74,213.01L353.79,213.03L357.7,213.41L357.76,213.41L364.41,212.28L364.47,212.25L367.54,210.18L367.6,210.13L374.53,203.02L374.59,202.96L378.89,199.33L378.95,199.31L381.96,198.97L382.02,198.97L390.18,199.6L390.24,199.63L409.3,212.77L409.36,212.79L412.93,213.33L412.99,213.33L417.68,212.88L417.74,212.86L421.21,210.63L421.26,210.59L426.18,208.02L426.24,208L430.09,205.37L430.15,205.32L437.92,198.61L437.98,198.59L449.32,193.63L449.38,193.64L455.31,193.84L455.36,193.83L458.99,193.51L459.05,193.53L461.4,195L461.45,195.04L469.11,200.57L469.17,200.58L477.05,202.33L477.11,202.35L485.77,205.86L485.83,205.87L490.02,205.9L490.08,205.89L494.94,206.62L494.99,206.64L501.26,208.11L501.31,208.11L505.28,207.13L505.34,207.1L513.89,202L513.94,201.96L524.23,195.04L524.29,195L532.11,190.07L532.17,190.03L540.33,185.55L540.39,185.52L558.66,175.56L558.72,175.52L559,175.36" style="vector-effect: non-scaling-stroke; fill: none; stroke: rgb(255, 161, 90); stroke-opacity: 1; stroke-width: 2px; opacity: 1;"/></g><g class="points"/><g class="text"/></g></g></g><g class="overplot"/><path class="xlines-above crisp" d="M0,0" style="fill: none;"/><path class="ylines-above crisp" d="M0,0" style="fill: none;"/><g class="overlines-above"/><g class="xaxislayer-above"><g class="xtick"><text text-anchor="middle" x="0" y="463" transform="translate(50,0)" style="font-family: 'Open Sans', verdana, arial, sans-serif; font-size: 12px; fill: rgb(42, 63, 95); fill-opacity: 1; white-space: pre;">0</text></g><g class="xtick"><text text-anchor="middle" x="0" y="463" transform="translate(161.8,0)" style="font-family: 'Open Sans', verdana, arial, sans-serif; font-size: 12px; fill: rgb(42, 63, 95); fill-opacity: 1; white-space: pre;">20</text></g><g class="xtick"><text text-anchor="middle" x="0" y="463" transform="translate(273.6,0)" style="font-family: 'Open Sans', verdana, arial, sans-serif; font-size: 12px; fill: rgb(42, 63, 95); fill-opacity: 1; white-space: pre;">40</text></g><g class="xtick"><text text-anchor="middle" x="0" y="463" transform="translate(385.4,0)" style="font-family: 'Open Sans', verdana, arial, sans-serif; font-size: 12px; fill: rgb(42, 63, 95); fill-opacity: 1; white-space: pre;">60</text></g><g class="xtick"><text text-anchor="middle" x="0" y="463" transform="translate(497.2,0)" style="font-family: 'Open Sans', verdana, arial, sans-serif; font-size: 12px; fill: rgb(42, 63, 95); fill-opacity: 1; white-space: pre;">80</text></g><g class="xtick"><text text-anchor="middle" x="0" y="463" transform="translate(609,0)" style="font-family: 'Open Sans', verdana, arial, sans-serif; font-size: 12px; fill: rgb(42, 63, 95); fill-opacity: 1; white-space: pre;">100</text></g></g><g class="yaxislayer-above"><g class="ytick"><text text-anchor="end" x="49" y="4.199999999999999" transform="translate(0,375.83)" style="font-family: 'Open Sans', verdana, arial, sans-serif; font-size: 12px; fill: rgb(42, 63, 95); fill-opacity: 1; white-space: pre;">−50</text></g><g class="ytick"><text text-anchor="end" x="49" y="4.199999999999999" transform="translate(0,285.83000000000004)" style="font-family: 'Open Sans', verdana, arial, sans-serif; font-size: 12px; fill: rgb(42, 63, 95); fill-opacity: 1; white-space: pre;">0</text></g><g class="ytick"><text text-anchor="end" x="49" y="4.199999999999999" transform="translate(0,195.83)" style="font-family: 'Open Sans', verdana, arial, sans-serif; font-size: 12px; fill: rgb(42, 63, 95); fill-opacity: 1; white-space: pre;">50</text></g><g class="ytick"><text text-anchor="end" x="49" y="4.199999999999999" transform="translate(0,105.83)" style="font-family: 'Open Sans', verdana, arial, sans-serif; font-size: 12px; fill: rgb(42, 63, 95); fill-opacity: 1; white-space: pre;">100</text></g></g><g class="overaxes-above"/></g></g><g class="polarlayer"/><g class="ternarylayer"/><g class="geolayer"/><g class="funnelarealayer"/><g class="pielayer"/><g class="treemaplayer"/><g class="sunburstlayer"/><g class="glimages"/><defs id="topdefs-0e7f36"><g class="clips"/><clipPath id="legend0e7f36"><rect width="68" height="105" x="0" y="0"/></clipPath></defs><g class="layer-above"><g class="imagelayer"/><g class="shapelayer"/></g><g class="infolayer"><g class="legend" pointer-events="all" transform="translate(620.1800000000001,60)"><rect class="bg" shape-rendering="crispEdges" style="stroke: rgb(68, 68, 68); stroke-opacity: 1; fill: rgb(255, 255, 255); fill-opacity: 1; stroke-width: 0px;" width="68" height="105" x="0" y="0"/><g class="scrollbox" transform="" clip-path="url('#legend0e7f36')"><g class="groups"><g class="traces" transform="translate(0,14.5)" style="opacity: 1;"><text class="legendtext" text-anchor="start" x="40" y="4.680000000000001" style="font-family: 'Open Sans', verdana, arial, sans-serif; font-size: 12px; fill: rgb(42, 63, 95); fill-opacity: 1; white-space: pre;">t1(t)</text><g class="layers" style="opacity: 1;"><g class="legendfill"/><g class="legendlines"><path class="js-line" d="M5,0h30" style="fill: none; stroke: rgb(99, 110, 250); stroke-opacity: 1; stroke-width: 2px;"/></g><g class="legendsymbols"><g class="legendpoints"/></g></g><rect class="legendtoggle" x="0" y="-9.5" width="63" height="19" style="fill: rgb(0, 0, 0); fill-opacity: 0;"/></g><g class="traces" transform="translate(0,33.5)" style="opacity: 1;"><text class="legendtext" text-anchor="start" x="40" y="4.680000000000001" style="font-family: 'Open Sans', verdana, arial, sans-serif; font-size: 12px; fill: rgb(42, 63, 95); fill-opacity: 1; white-space: pre;">t2(t)</text><g class="layers" style="opacity: 1;"><g class="legendfill"/><g class="legendlines"><path class="js-line" d="M5,0h30" style="fill: none; stroke: rgb(239, 85, 59); stroke-opacity: 1; stroke-width: 2px;"/></g><g class="legendsymbols"><g class="legendpoints"/></g></g><rect class="legendtoggle" x="0" y="-9.5" width="63" height="19" style="fill: rgb(0, 0, 0); fill-opacity: 0;"/></g><g class="traces" transform="translate(0,52.5)" style="opacity: 1;"><text class="legendtext" text-anchor="start" x="40" y="4.680000000000001" style="font-family: 'Open Sans', verdana, arial, sans-serif; font-size: 12px; fill: rgb(42, 63, 95); fill-opacity: 1; white-space: pre;">t3(t)</text><g class="layers" style="opacity: 1;"><g class="legendfill"/><g class="legendlines"><path class="js-line" d="M5,0h30" style="fill: none; stroke: rgb(0, 204, 150); stroke-opacity: 1; stroke-width: 2px;"/></g><g class="legendsymbols"><g class="legendpoints"/></g></g><rect class="legendtoggle" x="0" y="-9.5" width="63" height="19" style="fill: rgb(0, 0, 0); fill-opacity: 0;"/></g><g class="traces" transform="translate(0,71.5)" style="opacity: 1;"><text class="legendtext" text-anchor="start" x="40" y="4.680000000000001" style="font-family: 'Open Sans', verdana, arial, sans-serif; font-size: 12px; fill: rgb(42, 63, 95); fill-opacity: 1; white-space: pre;">t4(t)</text><g class="layers" style="opacity: 1;"><g class="legendfill"/><g class="legendlines"><path class="js-line" d="M5,0h30" style="fill: none; stroke: rgb(171, 99, 250); stroke-opacity: 1; stroke-width: 2px;"/></g><g class="legendsymbols"><g class="legendpoints"/></g></g><rect class="legendtoggle" x="0" y="-9.5" width="63" height="19" style="fill: rgb(0, 0, 0); fill-opacity: 0;"/></g><g class="traces" transform="translate(0,90.5)" style="opacity: 1;"><text class="legendtext" text-anchor="start" x="40" y="4.680000000000001" style="font-family: 'Open Sans', verdana, arial, sans-serif; font-size: 12px; fill: rgb(42, 63, 95); fill-opacity: 1; white-space: pre;">t5(t)</text><g class="layers" style="opacity: 1;"><g class="legendfill"/><g class="legendlines"><path class="js-line" d="M5,0h30" style="fill: none; stroke: rgb(255, 161, 90); stroke-opacity: 1; stroke-width: 2px;"/></g><g class="legendsymbols"><g class="legendpoints"/></g></g><rect class="legendtoggle" x="0" y="-9.5" width="63" height="19" style="fill: rgb(0, 0, 0); fill-opacity: 0;"/></g></g></g><rect class="scrollbar" rx="20" ry="3" width="0" height="0" style="fill: rgb(128, 139, 164); fill-opacity: 1;" x="0" y="0"/></g><g class="g-gtitle"><text class="gtitle" x="35" y="30" text-anchor="start" dy="0em" style="font-family: 'Open Sans', verdana, arial, sans-serif; font-size: 17px; fill: rgb(42, 63, 95); opacity: 1; font-weight: normal; white-space: pre;">Posiciones Sistema completo</text></g><g class="g-xtitle"/><g class="g-ytitle"/></g></svg>