<svg class="main-svg" xmlns="http://www.w3.org/2000/svg" xmlns:xlink="http://www.w3.org/1999/xlink" width="700" height="500" style="" viewBox="0 0 700 500"><rect x="0" y="0" width="700" height="500" style="fill: rgb(255, 255, 255); fill-opacity: 1;"/><defs id="defs-fbc70d"><g class="clips"><clipPath id="clipfbc70dxyplot" class="plotclip"><rect width="543" height="390"/></clipPath><clipPath class="axesclip" id="clipfbc70dx"><rect x="50" y="0" width="543" height="500"/></clipPath><clipPath class="axesclip" id="clipfbc70dy"><rect x="0" y="60" width="700" height="390"/></clipPath><clipPath class="axesclip" id="clipfbc70dxy"><rect x="50" y="60" width="543" height="390"/></clipPath></g><g class="gradients"/></defs><g class="bglayer"><rect class="bg" x="50" y="60" width="543" height="390" style="fill: rgb(229, 236, 246); fill-opacity: 1; stroke-width: 0;"/></g><g class="layer-below"><g class="imagelayer"/><g class="shapelayer"/></g><g class="cartesianlayer"><g class="subplot xy"><g class="layer-subplot"><g class="shapelayer"/><g class="imagelayer"/></g><g class="gridlayer"><g class="x"><path class="xgrid crisp" transform="translate(158.6,0)" d="M0,60v390" style="stroke: rgb(255, 255, 255); stroke-opacity: 1; stroke-width: 1px;"/><path class="xgrid crisp" transform="translate(267.2,0)" d="M0,60v390" style="stroke: rgb(255, 255, 255); stroke-opacity: 1; stroke-width: 1px;"/><path class="xgrid crisp" transform="translate(375.8,0)" d="M0,60v390" style="stroke: rgb(255, 255, 255); stroke-opacity: 1; stroke-width: 1px;"/><path class="xgrid crisp" transform="translate(484.4,0)" d="M0,60v390" style="stroke: rgb(255, 255, 255); stroke-opacity: 1; stroke-width: 1px;"/></g><g class="y"><path class="ygrid crisp" transform="translate(0,368.61)" d="M50,0h543" style="stroke: rgb(255, 255, 255); stroke-opacity: 1; stroke-width: 1px;"/><path class="ygrid crisp" transform="translate(0,307.58000000000004)" d="M50,0h543" style="stroke: rgb(255, 255, 255); stroke-opacity: 1; stroke-width: 1px;"/><path class="ygrid crisp" transform="translate(0,246.55)" d="M50,0h543" style="stroke: rgb(255, 255, 255); stroke-opacity: 1; stroke-width: 1px;"/><path class="ygrid crisp" transform="translate(0,185.51999999999998)" d="M50,0h543" style="stroke: rgb(255, 255, 255); stroke-opacity: 1; stroke-width: 1px;"/><path class="ygrid crisp" transform="translate(0,124.49)" d="M50,0h543" style="stroke: rgb(255, 255, 255); stroke-opacity: 1; stroke-width: 1px;"/><path class="ygrid crisp" transform="translate(0,63.46)" d="M50,0h543" style="stroke: rgb(255, 255, 255); stroke-opacity: 1; stroke-width: 1px;"/></g></g><g class="zerolinelayer"><path class="xzl zl crisp" transform="translate(50,0)" d="M0,60v390" style="stroke: rgb(255, 255, 255); stroke-opacity: 1; stroke-width: 2px;"/><path class="yzl zl crisp" transform="translate(0,429.64)" d="M50,0h543" style="stroke: rgb(255, 255, 255); stroke-opacity: 1; stroke-width: 2px;"/></g><path class="xlines-below"/><path class="ylines-below"/><g class="overlines-below"/><g class="xaxislayer-below"/><g class="yaxislayer-below"/><g class="overaxes-below"/><g class="plot" transform="translate(50,60)" clip-path="url('#clipfbc70dxyplot')"><g class="scatterlayer mlayer"><g class="trace scatter trace28f9e0" style="stroke-miterlimit: 2; opacity: 1;"><g class="fills"/><g class="errorbars"/><g class="lines"><path class="js-line" d="M0,369.03L2.86,367.23L2.87,367.23L3.58,366.21L3.59,366.18L4.65,365.41L4.66,365.41L6.65,364.3L6.66,364.27L7.83,363.52L7.84,363.52L9.64,362.45L9.65,362.41L10.75,361.52L10.76,361.52L12.66,360.53L12.67,360.5L13.87,359.59L13.88,359.59L15.67,358.62L15.68,358.58L16.85,357.64L16.87,357.64L18.72,356.57L18.73,356.54L19.87,355.68L19.88,355.68L21.72,354.68L21.73,354.66L22.91,353.76L22.93,353.76L24.74,352.78L24.75,352.74L25.79,351.77L25.8,351.77L27.86,350.66L27.87,350.63L29.05,349.87L29.06,349.86L30.83,348.91L30.84,348.87L31.95,347.86L31.96,347.86L33.89,346.85L33.9,346.83L35.09,345.94L35.1,345.94L36.93,344.85L36.95,344.82L38.01,343.99L38.02,343.99L39.95,342.9L39.96,342.87L41.09,342.03L41.11,342.02L42.94,341.04L42.95,341.01L44.15,340.09L44.16,340.09L45.96,339.12L45.97,339.08L47.01,338.12L47.02,338.12L49.05,337.02L49.07,337L50.22,336.22L50.23,336.22L52.07,335.15L52.08,335.11L53.16,334.2L53.17,334.2L55.16,333.1L55.17,333.07L56.32,332.29L56.33,332.29L58.16,331.21L58.17,331.17L59.24,330.33L59.25,330.32L61.15,329.32L61.16,329.29L62.33,328.37L62.34,328.37L64.16,327.4L64.17,327.37L65.34,326.44L65.36,326.43L67.18,325.46L67.19,325.43L68.32,324.46L68.33,324.46L70.26,323.37L70.28,323.34L71.43,322.56L71.44,322.56L73.28,321.48L73.29,321.44L74.35,320.54L74.36,320.54L76.38,319.43L76.39,319.41L77.53,318.64L77.54,318.64L79.38,317.55L79.39,317.52L80.44,316.66L80.45,316.66L82.38,315.65L82.39,315.62L83.58,314.72L83.59,314.72L85.42,313.63L85.44,313.6L86.52,312.77L86.53,312.77L88.41,311.77L88.42,311.74L89.58,310.81L89.6,310.81L91.43,309.82L91.44,309.79L92.62,308.88L92.64,308.88L94.45,307.89L94.46,307.85L95.51,306.91L95.52,306.91L97.54,305.79L97.56,305.77L98.7,305.01L98.71,305L100.53,304.02L100.54,303.98L101.63,302.98L101.64,302.98L103.6,301.97L103.62,301.95L104.77,301.08L104.78,301.08L106.61,300.08L106.62,300.05L107.74,299.1L107.75,299.1L109.64,298.1L109.65,298.07L110.8,297.16L110.82,297.16L112.65,296.17L112.66,296.14L113.83,295.21L113.85,295.21L115.66,294.25L115.67,294.21L116.77,293.26L116.78,293.26L118.69,292.26L118.7,292.23L119.83,291.34L119.84,291.34L121.73,290.27L121.74,290.23L122.78,289.34L122.79,289.34L124.77,288.33L124.78,288.31L126.04,287.44L126.05,287.44L127.82,286.39L127.83,286.35L128.92,285.43L128.93,285.43L130.86,284.42L130.87,284.4L132.07,283.51L132.08,283.51L133.87,282.52L133.88,282.48L135.02,281.55L135.03,281.55L136.92,280.47L136.93,280.44L138.1,279.6L138.11,279.6L139.94,278.51L139.95,278.48L141.11,277.66L141.13,277.65L142.92,276.68L142.93,276.65L144.01,275.7L144.03,275.7L145.95,274.7L145.96,274.68L147.09,273.79L147.1,273.79L148.98,272.79L148.99,272.75L150.02,271.78L150.03,271.78L152.11,270.65L152.12,270.63L153.3,269.87L153.31,269.87L155.07,268.91L155.08,268.87L156.11,267.89L156.12,267.89L158.11,266.9L158.12,266.87L159.33,265.95L159.34,265.95L161.13,264.96L161.14,264.92L162.23,264.01L162.24,264L164.15,263L164.16,262.97L165.25,262.06L165.26,262.06L167.2,260.95L167.21,260.92L168.37,260.1L168.38,260.1L170.18,259.12L170.19,259.09L171.24,258.15L171.25,258.15L173.25,257.05L173.26,257.02L174.49,256.22L174.5,256.22L176.27,255.15L176.28,255.11L177.27,254.23L177.28,254.22L179.32,253.21L179.33,253.18L180.59,252.31L180.6,252.31L182.36,251.24L182.37,251.21L183.47,250.33L183.48,250.33L185.41,249.23L185.42,249.2L186.59,248.39L186.6,248.39L188.38,247.42L188.39,247.39L189.46,246.46L189.47,246.45L191.41,245.44L191.42,245.41L192.5,244.5L192.52,244.5L194.42,243.51L194.43,243.48L195.52,242.56L195.53,242.56L197.43,241.57L197.45,241.53L198.52,240.59L198.53,240.59L200.46,239.59L200.48,239.57L201.61,238.68L201.62,238.68L203.49,237.69L203.51,237.65L204.52,236.67L204.53,236.67L206.57,235.67L206.58,235.64L207.76,234.77L207.77,234.77L209.59,233.8L209.6,233.77L210.64,232.78L210.65,232.78L212.64,231.77L212.65,231.74L213.78,230.85L213.79,230.85L215.65,229.86L215.66,229.83L216.73,228.9L216.74,228.89L218.67,227.9L218.68,227.87L219.77,226.95L219.78,226.95L221.72,225.85L221.73,225.82L222.83,225L222.84,225L224.74,223.9L224.75,223.87L225.81,223.04L225.82,223.04L227.72,222.04L227.73,222.01L228.93,221.1L228.94,221.1L230.74,220.12L230.75,220.08L231.86,219.12L231.87,219.12L233.85,218L233.86,217.97L235.11,217.21L235.12,217.21L236.83,216.23L236.85,216.19L237.86,215.22L237.87,215.22L239.94,214.1L239.95,214.08L241.18,213.28L241.19,213.28L242.91,212.31L242.92,212.28L243.98,211.33L243.99,211.33L245.94,210.33L245.95,210.3L247.04,209.4L247.05,209.39L248.94,208.4L248.95,208.37L250.09,207.44L250.11,207.44L252,206.34L252.01,206.31L253.07,205.49L253.08,205.48L254.98,204.48L254.99,204.45L256.18,203.55L256.19,203.55L258.02,202.48L258.03,202.44L259.13,201.56L259.14,201.56L261.1,200.46L261.11,200.43L262.29,199.66L262.3,199.66L264.08,198.69L264.09,198.65L265.18,197.65L265.19,197.65L267.16,196.64L267.17,196.62L268.29,195.76L268.3,195.75L270.16,194.75L270.18,194.71L271.25,193.78L271.26,193.78L273.23,192.67L273.24,192.64L274.33,191.83L274.35,191.83L276.2,190.83L276.21,190.8L277.38,189.88L277.39,189.88L279.24,188.81L279.25,188.78L280.39,187.92L280.41,187.92L282.27,186.84L282.28,186.81L283.45,185.99L283.46,185.99L285.26,185L285.27,184.96L286.31,184.01L286.32,184.01L288.32,182.99L288.33,182.96L289.59,182.1L289.6,182.1L291.34,181.15L291.35,181.11L292.46,180.1L292.47,180.1L294.45,179L294.46,178.98L295.58,178.19L295.59,178.19L297.44,177.11L297.46,177.08L298.51,176.23L298.52,176.23L300.47,175.13L300.49,175.1L301.57,174.28L301.58,174.28L303.49,173.18L303.5,173.15L304.66,172.33L304.67,172.33L306.47,171.36L306.48,171.33L307.54,170.37L307.56,170.37L309.56,169.25L309.58,169.22L310.72,168.46L310.73,168.46L312.57,167.39L312.58,167.35L313.64,166.44L313.65,166.44L315.62,165.44L315.64,165.41L316.79,164.55L316.8,164.54L318.63,163.56L318.64,163.53L319.77,162.56L319.78,162.56L321.69,161.49L321.71,161.46L322.82,160.62L322.84,160.62L324.68,159.63L324.69,159.6L325.85,158.68L325.87,158.67L327.7,157.69L327.71,157.65L328.86,156.7L328.87,156.7L330.73,155.72L330.74,155.69L331.98,154.79L331.99,154.79L333.77,153.8L333.78,153.76L334.86,152.78L334.87,152.78L336.84,151.78L336.86,151.76L338.01,150.9L338.02,150.89L339.86,149.9L339.87,149.86L341,148.89L341.01,148.89L342.9,147.9L342.92,147.87L344.03,146.97L344.04,146.97L345.91,145.98L345.92,145.95L347.07,145.01L347.09,145.01L348.93,144.02L348.94,143.99L350.1,143.06L350.12,143.05L351.95,142.07L351.96,142.04L353.16,141.13L353.17,141.12L354.97,140.15L354.98,140.12L356.01,139.15L356.02,139.15L358.02,138.15L358.03,138.13L359.27,137.24L359.28,137.24L361.06,136.26L361.07,136.22L362.16,135.23L362.17,135.23L364.12,134.23L364.14,134.21L365.27,133.33L365.28,133.33L367.17,132.24L367.18,132.21L368.23,131.36L368.24,131.36L370.2,130.27L370.21,130.24L371.29,129.41L371.3,129.41L373.17,128.43L373.18,128.4L374.34,127.47L374.36,127.46L376.19,126.49L376.2,126.46L377.33,125.5L377.34,125.49L379.23,124.49L379.24,124.47L380.44,123.59L380.45,123.58L382.26,122.59L382.27,122.55L383.37,121.57L383.38,121.57L385.33,120.58L385.35,120.55L386.53,119.68L386.54,119.68L388.35,118.71L388.36,118.67L389.47,117.69L389.48,117.69L391.44,116.6L391.45,116.57L392.55,115.76L392.56,115.76L394.41,114.77L394.42,114.74L395.56,113.8L395.58,113.8L397.43,112.82L397.44,112.79L398.59,111.85L398.61,111.85L400.5,110.75L400.51,110.72L401.61,109.92L401.62,109.92L403.47,108.95L403.48,108.91L404.59,107.93L404.6,107.93L406.53,106.92L406.54,106.9L407.77,106.03L407.78,106.03L409.56,105.06L409.57,105.02L410.68,104.02L410.69,104.01L412.64,103.02L412.65,102.99L413.8,102.12L413.81,102.12L415.68,101.04L415.69,101.01L416.74,100.15L416.75,100.14L418.69,99.13L418.7,99.1L419.8,98.2L419.82,98.2L421.69,97.21L421.7,97.18L422.87,96.25L422.88,96.25L424.71,95.27L424.72,95.24L425.87,94.28L425.89,94.28L427.75,93.28L427.76,93.25L428.96,92.37L428.97,92.37L430.81,91.29L430.82,91.25L431.83,90.37L431.84,90.37L433.86,89.36L433.87,89.33L435.05,88.48L435.06,88.47L436.88,87.51L436.89,87.47L437.94,86.48L437.95,86.48L439.93,85.49L439.94,85.46L441.08,84.55L441.09,84.55L442.95,83.56L442.96,83.52L444.05,82.6L444.07,82.6L446.01,81.49L446.02,81.46L447.08,80.64L447.1,80.64L449,79.64L449.01,79.62L450.11,78.72L450.13,78.72L452.05,77.63L452.06,77.6L453.09,76.72L453.1,76.72L455.09,75.71L455.1,75.68L456.28,74.83L456.29,74.83L458.14,73.77L458.15,73.73L459.16,72.82L459.17,72.82L461.19,71.8L461.2,71.77L462.43,70.89L462.44,70.89L464.22,69.84L464.23,69.8L465.37,68.93L465.38,68.93L467.25,67.87L467.26,67.84L468.41,66.98L468.42,66.98L470.25,65.99L470.26,65.96L471.35,65.06L471.36,65.06L473.3,63.96L473.31,63.92L474.42,63.07L474.43,63.07L476.35,61.98L476.36,61.95L477.59,61.16L477.6,61.16L479.37,60.1L479.38,60.06L480.46,59.15L480.47,59.15L482.48,58.04L482.49,58.01L483.67,57.24L483.68,57.24L485.44,56.28L485.45,56.25L486.58,55.27L486.59,55.26L488.48,54.28L488.49,54.25L489.69,53.33L489.7,53.32L491.5,52.34L491.51,52.31L492.67,51.38L492.69,51.38L494.55,50.31L494.56,50.28L495.68,49.42L495.69,49.42L497.55,48.43L497.56,48.41L498.76,47.5L498.77,47.5L500.6,46.44L500.61,46.4L501.7,45.5L501.71,45.49L503.65,44.5L503.67,44.47L504.85,43.61L504.86,43.61L506.68,42.64L506.7,42.6L507.73,41.61L507.74,41.61L509.75,40.61L509.76,40.58L510.89,39.69L510.9,39.69L512.8,38.59L512.81,38.55L513.87,37.73L513.88,37.73L515.83,36.62L515.84,36.59L516.91,35.77L516.93,35.77L518.81,34.78L518.83,34.75L519.94,33.85L519.96,33.85L521.87,32.77L521.88,32.74L522.9,31.86L522.91,31.86L524.95,30.75L524.96,30.72L526.22,29.94L526.23,29.94L527.95,28.96L527.96,28.92L528.97,27.95L528.98,27.95L531.01,26.94L531.02,26.92L532.21,26.03L532.22,26.03L534.05,24.96L534.06,24.93L535.18,24.06L535.19,24.06L537.06,23.06L537.07,23.03L538.16,22.12L538.17,22.12L540.12,21.01L540.13,20.98L541.29,20.18L541.31,20.17L543,19.5" style="vector-effect: non-scaling-stroke; fill: none; stroke: rgb(99, 110, 250); stroke-opacity: 1; stroke-width: 2px; opacity: 1;"/></g><g class="points"/><g class="text"/></g><g class="trace scatter trace0a7362" style="stroke-miterlimit: 2; opacity: 1;"><g class="fills"/><g class="errorbars"/><g class="lines"><path class="js-line" d="M0,369.03L1.24,369.17L1.25,369.18L4.28,370.13L4.29,370.13L7.29,369.15L7.3,369.15L10.34,370.15L10.35,370.14L13.41,369.17L13.42,369.18L16.43,370.12L16.44,370.11L19.42,369.14L19.43,369.15L22.43,370.14L22.44,370.13L25.47,369.13L25.48,369.14L28.51,370.13L28.52,370.13L31.56,369.13L31.57,369.13L34.6,370.13L34.61,370.13L37.62,369.14L37.63,369.15L40.64,370.14L40.65,370.13L43.66,369.15L43.67,369.15L46.69,370.15L46.7,370.14L49.72,369.15L49.73,369.16L52.81,370.13L52.82,370.13L55.82,369.15L55.83,369.15L58.85,370.14L58.86,370.13L61.86,369.14L61.87,369.15L64.92,370.11L64.93,370.11L67.91,369.14L67.92,369.14L70.93,370.13L70.94,370.13L73.98,369.12L73.99,369.13L77.03,370.13L77.04,370.13L80.07,369.14L80.08,369.14L83.09,370.14L83.1,370.13L86.11,369.14L86.12,369.15L89.13,370.14L89.14,370.13L92.15,369.15L92.16,369.15L95.17,370.15L95.18,370.14L98.2,369.15L98.21,369.15L101.25,370.16L101.26,370.15L104.34,369.17L104.35,369.18L107.33,370.15L107.34,370.14L110.35,369.14L110.36,369.15L113.37,370.14L113.38,370.13L116.39,369.14L116.4,369.15L119.39,370.14L119.41,370.13L122.44,369.13L122.45,369.14L125.47,370.13L125.48,370.13L128.52,369.12L128.53,369.13L131.57,370.13L131.58,370.12L134.62,369.16L134.63,369.17L137.61,370.14L137.62,370.13L140.62,369.14L140.63,369.15L143.63,370.15L143.65,370.14L146.66,369.15L146.68,369.16L149.69,370.16L149.71,370.15L152.75,369.15L152.76,369.15L155.8,370.15L155.81,370.14L158.83,369.15L158.84,369.15L161.85,370.14L161.86,370.13L164.87,369.14L164.88,369.15L167.87,370.14L167.88,370.13L170.94,369.16L170.95,369.17L173.92,370.13L173.93,370.12L176.96,369.12L176.97,369.13L180.02,370.13L180.03,370.13L183.06,369.13L183.07,369.14L186.08,370.14L186.09,370.13L189.11,369.14L189.12,369.15L192.11,370.14L192.12,370.13L195.2,369.18L195.21,369.19L198.16,370.14L198.17,370.13L201.18,369.15L201.19,369.16L204.22,370.15L204.23,370.15L207.27,369.15L207.28,369.16L210.4,370.1L210.41,370.09L213.34,369.14L213.36,369.15L216.37,370.14L216.39,370.13L219.38,369.14L219.39,369.15L222.4,370.14L222.41,370.13L225.42,369.14L225.43,369.15L228.43,370.14L228.44,370.13L231.46,369.13L231.47,369.14L234.5,370.13L234.51,370.12L237.58,369.14L237.6,369.15L240.6,370.13L240.61,370.13L243.63,369.14L243.64,369.15L246.64,370.14L246.65,370.13L249.66,369.14L249.67,369.15L252.68,370.14L252.69,370.13L255.69,369.14L255.7,369.15L258.72,370.15L258.73,370.14L261.76,369.15L261.77,369.16L264.81,370.16L264.82,370.15L267.86,369.15L267.87,369.16L270.88,370.14L270.89,370.14L273.9,369.14L273.91,369.15L276.92,370.14L276.93,370.13L279.94,369.14L279.95,369.15L282.95,370.14L282.96,370.13L285.98,369.13L285.99,369.14L289.02,370.13L289.03,370.12L292.11,369.15L292.12,369.16L295.12,370.13L295.13,370.12L298.14,369.14L298.15,369.15L301.16,370.14L301.17,370.13L304.17,369.14L304.18,369.15L307.2,370.14L307.21,370.14L310.22,369.15L310.23,369.15L313.27,370.16L313.28,370.15L316.33,369.15L316.34,369.16L319.36,370.14L319.37,370.14L322.38,369.14L322.39,369.15L325.4,370.14L325.41,370.13L328.43,369.14L328.44,369.15L331.45,370.13L331.46,370.12L334.53,369.15L334.54,369.16L337.54,370.13L337.55,370.13L340.58,369.13L340.59,369.14L343.61,370.14L343.62,370.13L346.63,369.14L346.64,369.15L349.65,370.14L349.66,370.13L352.67,369.15L352.68,369.15L355.7,370.15L355.71,370.14L358.73,369.15L358.74,369.15L361.78,370.16L361.79,370.15L364.83,369.15L364.84,369.15L367.86,370.14L367.87,370.13L370.88,369.14L370.89,369.15L373.89,370.14L373.9,370.13L376.92,369.14L376.93,369.15L379.94,370.13L379.95,370.13L382.99,369.13L383,369.14L386.08,370.1L386.09,370.1L389.11,369.15L389.12,369.16L392.11,370.14L392.12,370.13L395.13,369.14L395.14,369.15L398.15,370.14L398.16,370.13L401.17,369.15L401.18,369.15L404.2,370.15L404.21,370.14L407.24,369.15L407.25,369.16L410.29,370.16L410.3,370.15L413.34,369.15L413.35,369.15L416.37,370.14L416.38,370.14L419.39,369.14L419.4,369.15L422.41,370.14L422.42,370.13L425.44,369.14L425.45,369.15L428.46,370.13L428.47,370.13L431.5,369.13L431.51,369.13L434.55,370.13L434.56,370.13L437.6,369.13L437.61,369.13L440.64,370.13L440.66,370.13L443.66,369.14L443.67,369.15L446.69,370.14L446.7,370.13L449.71,369.15L449.72,369.15L452.74,370.15L452.75,370.14L455.78,369.15L455.79,369.15L458.84,370.16L458.85,370.15L461.93,369.17L461.94,369.18L464.92,370.14L464.93,370.14L467.94,369.14L467.95,369.15L471,370.11L471.01,370.11L473.98,369.13L474,369.14L477.01,370.13L477.03,370.13L480.07,369.12L480.08,369.13L483.17,370.11L483.18,370.1L486.17,369.13L486.18,369.14L489.2,370.14L489.21,370.13L492.22,369.14L492.23,369.15L495.25,370.14L495.26,370.13L498.27,369.15L498.28,369.15L501.31,370.15L501.32,370.14L504.35,369.15L504.36,369.15L507.4,370.16L507.41,370.15L510.45,369.14L510.46,369.15L513.48,370.14L513.49,370.13L516.55,369.16L516.56,369.17L519.52,370.14L519.53,370.13L522.6,369.16L522.62,369.16L525.6,370.13L525.61,370.13L528.66,369.12L528.68,369.13L531.72,370.13L531.73,370.13L534.75,369.14L534.76,369.15L537.78,370.14L537.79,370.13L540.78,369.14L540.8,369.15L543,370.46" style="vector-effect: non-scaling-stroke; fill: none; stroke: rgb(239, 85, 59); stroke-opacity: 1; stroke-width: 2px; opacity: 1;"/></g><g class="points"/><g class="text"/></g><g class="trace scatter trace047e4f" style="stroke-miterlimit: 2; opacity: 1;"><g class="fills"/><g class="errorbars"/><g class="lines"><path class="js-line" d="M0,369.03L2.74,367.3L2.75,367.3L3.56,368.1L3.57,368.13L4.57,368.74L4.58,368.73L6.48,367.87L6.49,367.85L7.87,366.63L7.88,366.63L9.6,367.14L9.61,367.17L10.66,368.01L10.68,368.01L12.63,367.16L12.64,367.13L13.84,366.19L13.85,366.19L15.58,366.69L15.59,366.72L16.83,367.78L16.84,367.78L18.64,367.17L18.65,367.14L19.75,366.18L19.77,366.18L21.61,366.8L21.62,366.83L22.95,367.98L22.96,367.98L24.71,367.48L24.72,367.45L25.75,366.59L25.76,366.59L27.7,367.46L27.71,367.48L29.13,368.7L29.14,368.7L30.8,368.28L30.81,368.25L31.83,367.35L31.84,367.35L33.85,368.23L33.86,368.26L35.09,369.23L35.1,369.23L36.86,368.63L36.87,368.6L37.97,367.67L37.98,367.67L39.86,368.29L39.87,368.31L40.99,369.3L41,369.3L42.85,368.68L42.86,368.65L44.14,367.56L44.15,367.56L45.92,368.07L45.93,368.1L46.97,369L46.98,369L48.94,368.13L48.95,368.1L50.21,366.96L50.22,366.96L52.02,367.35L52.03,367.38L53.03,368.25L53.04,368.25L55.1,367.24L55.11,367.21L56.35,366.29L56.36,366.29L58.07,366.81L58.08,366.84L59.19,367.81L59.2,367.81L61.12,367.06L61.13,367.03L62.31,366.12L62.33,366.12L64.1,366.75L64.11,366.78L65.26,367.81L65.27,367.81L67.16,367.2L67.17,367.17L68.22,366.31L68.23,366.31L70.17,367.17L70.18,367.19L71.38,368.26L71.39,368.26L73.23,367.86L73.24,367.82L74.24,366.98L74.25,366.98L76.29,367.98L76.3,368.01L77.59,369.03L77.61,369.04L79.31,368.52L79.32,368.48L80.44,367.59L80.45,367.59L82.32,368.32L82.33,368.35L83.5,369.35L83.51,369.35L85.34,368.74L85.35,368.71L86.46,367.74L86.47,367.74L88.35,368.34L88.36,368.37L89.48,369.36L89.49,369.36L91.39,368.62L91.4,368.59L92.53,367.62L92.54,367.62L94.4,368.12L94.41,368.15L95.48,369.07L95.49,369.07L97.43,368.2L97.44,368.18L98.68,367.06L98.7,367.06L100.5,367.44L100.51,367.48L101.52,368.34L101.53,368.34L103.57,367.34L103.58,367.31L104.85,366.33L104.86,366.33L106.56,366.83L106.57,366.86L107.64,367.81L107.66,367.81L109.54,367.19L109.56,367.17L110.73,366.09L110.74,366.09L112.6,366.71L112.61,366.74L113.72,367.71L113.73,367.71L115.57,367.21L115.58,367.18L116.82,366.12L116.83,366.12L118.63,366.87L118.65,366.89L119.8,367.9L119.81,367.9L121.63,367.52L121.64,367.49L122.78,366.51L122.79,366.52L124.67,367.38L124.68,367.4L126.05,368.6L126.06,368.6L127.77,368.19L127.78,368.15L128.8,367.28L128.81,367.28L130.8,368.14L130.81,368.17L131.99,369.19L132,369.19L133.81,368.69L133.82,368.66L134.92,367.68L134.94,367.68L136.8,368.28L136.81,368.31L138.07,369.37L138.08,369.37L139.84,368.73L139.86,368.7L141,367.7L141.01,367.7L142.89,368.32L142.9,368.35L143.96,369.25L143.97,369.25L145.87,368.51L145.88,368.48L147.2,367.37L147.21,367.37L148.96,367.87L148.97,367.9L149.95,368.72L149.97,368.72L151.94,367.84L151.95,367.82L153.33,366.61L153.34,366.61L155.03,367.03L155.04,367.06L156.09,367.98L156.1,367.98L158.03,367.25L158.05,367.22L159.24,366.16L159.25,366.16L161.04,366.65L161.05,366.68L162.28,367.73L162.29,367.73L164.12,367L164.13,366.97L165.23,366.07L165.25,366.07L167.08,366.68L167.09,366.7L168.33,367.76L168.34,367.76L170.11,367.24L170.12,367.21L171.29,366.24L171.31,366.24L173.16,367.08L173.17,367.11L174.44,368.16L174.46,368.16L176.2,367.75L176.21,367.72L177.27,366.85L177.28,366.85L179.27,367.85L179.28,367.87L180.47,368.92L180.48,368.92L182.27,368.53L182.29,368.5L183.37,367.54L183.38,367.54L185.3,368.28L185.32,368.3L186.47,369.32L186.48,369.32L188.3,368.81L188.31,368.78L189.54,367.74L189.55,367.74L191.37,368.47L191.39,368.5L192.48,369.4L192.49,369.4L194.35,368.77L194.36,368.74L195.59,367.71L195.6,367.71L197.4,368.33L197.41,368.36L198.53,369.25L198.54,369.25L200.39,368.5L200.4,368.47L201.64,367.37L201.65,367.37L203.48,367.87L203.49,367.91L204.53,368.69L204.54,368.69L206.52,367.68L206.54,367.65L207.76,366.6L207.77,366.6L209.54,366.99L209.55,367.03L210.67,367.96L210.68,367.96L212.61,367.1L212.62,367.08L213.74,366.14L213.75,366.14L215.57,366.64L215.58,366.67L216.77,367.7L216.78,367.7L218.64,366.95L218.66,366.92L219.74,366.03L219.75,366.03L221.62,366.64L221.63,366.67L222.85,367.68L222.86,367.68L224.65,367.06L224.66,367.03L225.83,366.08L225.84,366.08L227.68,366.83L227.69,366.86L228.91,367.84L228.92,367.85L230.72,367.26L230.73,367.23L231.8,366.41L231.81,366.41L233.72,367.28L233.73,367.31L235.03,368.45L235.04,368.45L236.8,368.05L236.81,368.01L237.87,367.17L237.88,367.17L239.82,368.04L239.83,368.06L241.11,369.15L241.12,369.15L242.88,368.56L242.89,368.53L244,367.66L244.01,367.66L245.89,368.4L245.9,368.43L247.1,369.38L247.11,369.38L248.89,368.76L248.9,368.73L250.09,367.75L250.11,367.75L251.91,368.38L251.92,368.41L253.02,369.36L253.03,369.36L254.94,368.61L254.95,368.59L256.08,367.62L256.09,367.62L257.95,368.11L257.96,368.14L259.03,369.06L259.04,369.06L260.97,368.2L260.98,368.18L262.24,367.04L262.25,367.03L264.05,367.41L264.06,367.44L265.06,368.31L265.07,368.31L267.07,367.45L267.08,367.42L268.39,366.32L268.4,366.32L270.11,366.82L270.12,366.85L271.26,367.8L271.27,367.8L273.15,367.05L273.16,367.02L274.36,366.08L274.37,366.08L276.15,366.71L276.16,366.74L277.29,367.71L277.3,367.71L279.17,367.09L279.18,367.06L280.27,366.12L280.29,366.12L282.13,366.73L282.14,366.76L283.47,367.9L283.48,367.9L285.22,367.39L285.23,367.36L286.27,366.48L286.28,366.48L288.22,367.35L288.24,367.37L289.51,368.53L289.52,368.53L291.29,368.23L291.3,368.2L292.34,367.24L292.35,367.24L294.35,368.12L294.36,368.14L295.61,369.17L295.62,369.17L297.36,368.65L297.37,368.62L298.48,367.65L298.49,367.65L300.41,368.39L300.42,368.41L301.51,369.32L301.52,369.32L303.37,368.72L303.38,368.69L304.64,367.62L304.66,367.62L306.45,368.23L306.46,368.26L307.49,369.12L307.5,369.12L309.46,368.26L309.47,368.24L310.67,367.16L310.68,367.16L312.52,367.55L312.53,367.59L313.54,368.44L313.55,368.44L315.59,367.43L315.6,367.4L316.87,366.41L316.88,366.41L318.59,366.91L318.6,366.94L319.67,367.87L319.69,367.87L321.62,367.13L321.63,367.11L322.74,366.15L322.75,366.15L324.62,366.76L324.63,366.78L325.75,367.79L325.76,367.79L327.62,367.29L327.64,367.26L328.76,366.26L328.78,366.26L330.7,367.12L330.71,367.15L331.88,368.15L331.89,368.16L333.75,367.69L333.76,367.65L334.76,366.85L334.77,366.85L336.8,367.86L336.81,367.89L338.1,368.93L338.12,368.94L339.83,368.44L339.84,368.41L340.94,367.52L340.95,367.52L342.88,368.38L342.89,368.41L344.08,369.31L344.09,369.31L345.87,368.69L345.88,368.66L346.98,367.71L346.99,367.71L348.87,368.31L348.88,368.34L350.02,369.33L350.03,369.33L351.91,368.6L351.92,368.57L353.06,367.58L353.07,367.58L354.93,368.08L354.94,368.11L355.98,369.01L355.99,369.01L357.95,368.15L357.96,368.12L359.22,366.98L359.23,366.98L361.03,367.37L361.04,367.4L362.04,368.27L362.05,368.26L364.06,367.38L364.07,367.36L365.34,366.3L365.35,366.3L367.08,366.81L367.09,366.84L368.2,367.8L368.21,367.8L370.08,367.19L370.09,367.16L371.28,366.11L371.29,366.11L373.11,366.71L373.12,366.74L374.27,367.77L374.28,367.77L376.16,367.16L376.17,367.13L377.23,366.23L377.24,366.23L379.14,366.97L379.16,366.99L380.37,368.1L380.38,368.1L382.21,367.73L382.22,367.7L383.26,366.79L383.27,366.79L385.29,367.8L385.3,367.83L386.59,368.88L386.61,368.88L388.3,368.48L388.31,368.45L389.39,367.49L389.4,367.49L391.37,368.34L391.38,368.37L392.58,369.3L392.59,369.3L394.37,368.68L394.38,368.65L395.55,367.71L395.56,367.71L397.38,368.34L397.39,368.37L398.5,369.33L398.51,369.33L400.36,368.71L400.38,368.69L401.58,367.6L401.59,367.6L403.43,368.1L403.44,368.14L404.5,369.05L404.51,369.05L406.45,368.19L406.46,368.17L407.72,367.03L407.73,367.03L409.53,367.4L409.54,367.44L410.59,368.31L410.61,368.31L412.61,367.31L412.63,367.28L413.81,366.33L413.82,366.33L415.6,366.84L415.61,366.87L416.75,367.82L416.76,367.82L418.64,367.07L418.65,367.04L419.85,366.1L419.86,366.1L421.64,366.73L421.65,366.76L422.84,367.75L422.86,367.76L424.67,367.15L424.68,367.12L425.78,366.19L425.79,366.19L427.68,366.94L427.69,366.96L428.89,368.03L428.9,368.03L430.72,367.66L430.73,367.63L431.76,366.69L431.78,366.7L431.79,366.7L433.75,367.57L433.76,367.59L435.04,368.78L435.05,368.78L436.83,368.4L436.84,368.36L437.96,367.43L437.97,367.43L439.91,368.3L439.92,368.33L441.02,369.25L441.04,369.25L442.86,368.76L442.87,368.73L444.11,367.67L444.12,367.67L445.96,368.41L445.97,368.44L447.04,369.3L447.05,369.3L448.95,368.55L448.96,368.53L450.19,367.53L450.2,367.53L451.98,368.04L451.99,368.07L453.08,368.95L453.09,368.95L454.99,368.09L455,368.07L456.36,366.88L456.37,366.88L458.09,367.28L458.1,367.31L459.11,368.19L459.12,368.19L461.13,367.32L461.14,367.29L462.32,366.27L462.33,366.27L464.13,366.78L464.15,366.8L465.24,367.79L465.25,367.79L467.2,367.05L467.21,367.02L468.3,366.12L468.32,366.12L470.17,366.74L470.18,366.76L471.42,367.81L471.43,367.81L473.24,367.21L473.25,367.18L474.3,366.3L474.31,366.3L476.25,367.15L476.27,367.18L477.49,368.24L477.5,368.24L479.32,367.84L479.33,367.81L480.33,366.95L480.34,366.95L482.39,367.96L482.4,367.99L483.69,369.01L483.7,369.01L485.41,368.51L485.42,368.48L486.46,367.57L486.47,367.57L488.43,368.3L488.44,368.33L489.58,369.32L489.59,369.32L491.45,368.71L491.46,368.68L492.57,367.71L492.58,367.7L494.48,368.32L494.49,368.35L495.59,369.29L495.6,369.29L497.5,368.55L497.51,368.52L498.69,367.5L498.7,367.49L500.55,367.98L500.56,368.02L501.58,368.88L501.59,368.87L501.6,368.87L503.55,368.02L503.56,367.99L504.88,366.79L504.89,366.79L506.65,367.19L506.66,367.22L507.73,368.11L507.74,368.11L509.7,367.24L509.71,367.22L510.94,366.23L510.95,366.23L512.69,366.74L512.7,366.77L513.83,367.79L513.84,367.79L515.72,367.19L515.73,367.16L516.93,366.15L516.94,366.15L518.77,366.88L518.78,366.91L520.01,367.91L520.02,367.91L521.82,367.33L521.83,367.29L522.9,366.47L522.91,366.47L524.82,367.34L524.83,367.37L526.18,368.53L526.19,368.53L527.9,368.14L527.92,368.11L528.94,367.22L528.95,367.22L530.95,368.08L530.96,368.11L532.17,369.15L532.18,369.15L533.96,368.63L533.98,368.6L535.09,367.62L535.1,367.62L536.98,368.24L536.99,368.26L538.19,369.27L538.2,369.27L539.99,368.65L540,368.62L541.28,367.52L541.29,367.52L543,367.88" style="vector-effect: non-scaling-stroke; fill: none; stroke: rgb(0, 204, 150); stroke-opacity: 1; stroke-width: 2px; opacity: 1;"/></g><g class="points"/><g class="text"/></g><g class="trace scatter traceafe652" style="stroke-miterlimit: 2; opacity: 1;"><g class="fills"/><g class="errorbars"/><g class="lines"><path class="js-line" d="M0,369.03L6.33,365.99L6.34,365.99L8.38,364.83L8.39,364.82L16.76,355.43L16.77,355.41L28.23,343.07L28.24,343.07L29.84,343.32L29.85,343.33L32.68,346.19L32.69,346.2L47.79,363.16L47.81,363.17L51.05,365.35L51.06,365.35L52.71,364.6L52.73,364.59L58.92,358.9L58.93,358.88L72.03,346.41L72.05,346.4L77.42,344.84L77.43,344.84L83.22,345.61L83.23,345.61L95.27,344.2L95.29,344.2L98.33,344.05L98.34,344.04L101.18,343.88L101.19,343.89L105.24,344.14L105.26,344.14L124.66,339.62L124.67,339.62L128.15,340.22L128.16,340.21L151.87,335.81L151.88,335.82L156.72,336.46L156.73,336.45L172.52,333.92L172.53,333.92L189.63,333.31L189.64,333.3L210.6,332.63L210.61,332.63L230.06,335.97L230.07,335.98L233.41,335.89L233.42,335.88L236.25,335.89L236.26,335.9L240.14,336.18L240.15,336.18L245.01,336.6L245.02,336.61L265.16,337.86L265.17,337.85L269.91,337.36L269.93,337.36L285.53,337.07L285.54,337.08L288.43,338.02L288.44,338.03L291.56,338.77L291.57,338.77L294.13,339.86L294.14,339.87L302.05,346.25L302.06,346.26L311.23,352.27L311.24,352.27L313.37,351.81L313.38,351.8L319.95,347.09L319.96,347.08L333.22,336.73L333.23,336.73L337.11,335.54L337.12,335.55L342.84,336.57L342.85,336.57L348.78,335.43L348.79,335.42L358.15,334.6L358.16,334.61L360.83,334.21L360.85,334.21L364.06,334.53L364.07,334.53L372.61,334.92L372.62,334.91L386.12,334.42L386.13,334.43L397.54,335.22L397.55,335.23L405.57,335.86L405.58,335.86L409.38,335.86L409.39,335.87L413.34,336.26L413.35,336.25L430.94,333.59L430.95,333.59L436.21,335.4L436.22,335.41L455.46,347.2L455.47,347.2L459.49,347.87L459.5,347.86L465.81,344.97L465.82,344.96L475.92,340.69L475.93,340.69L483.35,339.55L483.36,339.56L495.63,345.63L495.64,345.64L502.39,348.19L502.41,348.19L504.58,347.3L504.59,347.29L508.96,344.42L508.98,344.4L519.04,334.17L519.05,334.15L524.84,329.41L524.85,329.41L526.98,329.61L526.99,329.62L530.2,332.3L530.21,332.32L536.45,339.01L536.46,339.03L543,346.38" style="vector-effect: non-scaling-stroke; fill: none; stroke: rgb(171, 99, 250); stroke-opacity: 1; stroke-width: 2px; opacity: 1;"/></g><g class="points"/><g class="text"/></g><g class="trace scatter trace3c4661" style="stroke-miterlimit: 2; opacity: 1;"><g class="fills"/><g class="errorbars"/><g class="lines"><path class="js-line" d="M0,369.03L1.82,368.84L1.84,368.84L3.21,368.51L3.23,368.5L13.97,356.04L13.98,356.03L22.99,348.01L23,348.01L25,345.17L25.01,345.15L27.46,342.91L27.48,342.9L31.45,339.44L31.46,339.44L33.29,338.69L33.3,338.68L39.18,335.34L39.19,335.33L42.8,333L42.81,333L45.09,332.33L45.1,332.33L46.62,331.49L46.63,331.48L48.67,330.48L48.69,330.49L50.37,330.17L50.38,330.16L53.33,328.11L53.34,328.12L55.27,327.52L55.28,327.51L57.85,326.33L57.86,326.33L60.09,325.44L60.1,325.43L66.7,322L66.71,321.98L69.66,320.07L69.67,320.07L71.76,319.04L71.77,319.03L74.99,317.32L75,317.32L80.64,315.84L80.65,315.83L87.85,312.15L87.86,312.15L91.31,310.97L91.32,310.96L96,308.3L96.01,308.3L101.64,305.83L101.65,305.82L103.78,305.46L103.79,305.46L109.72,305.53L109.73,305.53L116.82,305.34L116.83,305.34L126.17,306.66L126.18,306.67L130.42,308.7L130.43,308.7L133.53,309.62L133.55,309.62L137.34,309.37L137.35,309.38L140.05,309.5L140.06,309.49L143.65,309.29L143.66,309.29L146.12,309.02L146.13,309.01L154.66,305.86L154.67,305.87L158.28,305.84L158.3,305.84L164.27,304.61L164.28,304.61L170.56,305.76L170.57,305.77L174.77,305.31L174.78,305.3L185.78,301.19L185.79,301.19L191.58,301.8L191.59,301.79L195.26,301.11L195.27,301.12L200.18,301.74L200.19,301.73L212.45,295.4L212.47,295.4L217.8,295.58L217.81,295.57L220.19,295.36L220.2,295.37L223.89,295.99L223.9,295.99L226.85,295.34L226.87,295.35L233.15,298.23L233.16,298.24L238.13,299.76L238.14,299.76L241.3,300.03L241.31,300.03L249.24,297.69L249.25,297.68L257.43,295.21L257.44,295.21L260.64,296.38L260.65,296.39L263.63,297.05L263.64,297.05L279.91,297.8L279.92,297.81L286.99,297.53L287,297.53L289.86,295.79L289.88,295.78L294.64,292.7L294.65,292.7L298.12,291.79L298.13,291.78L303.98,290.08L303.99,290.08L308.46,288.93L308.47,288.92L310.54,288.38L310.55,288.39L314.28,289.5L314.29,289.49L318.15,287.52L318.17,287.52L320.29,286.91L320.3,286.9L323.19,286.28L323.2,286.28L325.85,285.36L325.87,285.35L332.91,282.94L332.92,282.95L336.7,283.19L336.71,283.19L339.02,284.09L339.03,284.1L347.61,288.64L347.62,288.64L349.7,287.89L349.71,287.88L351.95,287.73L351.96,287.73L367.26,294.15L367.27,294.14L372.28,293.69L372.29,293.7L376.36,294.08L376.38,294.07L382.46,293.04L382.47,293.05L385.29,293.22L385.3,293.21L389.3,291.83L389.31,291.84L401.46,296.42L401.47,296.42L406.77,297.68L406.78,297.67L411.16,296.34L411.17,296.34L414.17,296.82L414.18,296.82L423.34,294.66L423.36,294.66L433.42,292.57L433.43,292.56L437.86,291.18L437.88,291.18L440.96,291.05L440.97,291.04L444.71,290.24L444.72,290.25L448.17,289.51L448.18,289.5L451.23,289.27L451.24,289.27L453.32,288.52L453.33,288.51L457.5,286.62L457.51,286.63L460.84,287.52L460.85,287.51L465.83,286.74L465.84,286.74L470.19,286.86L470.21,286.85L473.9,287.1L473.91,287.11L477.76,289.86L477.77,289.87L481.04,291.64L481.05,291.63L485.41,291.65L485.42,291.66L489.45,291.97L489.46,291.97L495.15,291.94L495.16,291.94L498.2,291.4L498.21,291.39L501.45,290.79L501.46,290.8L504.51,291.53L504.52,291.52L508.63,289.36L508.64,289.36L511.09,288.61L511.1,288.6L519.94,287L519.96,287.01L522.62,286.45L522.63,286.44L524.19,286.7L524.2,286.71L528.81,289.66L528.82,289.65L530.6,289.84L530.61,289.85L533.5,291.14L533.51,291.14L538.53,292.64L538.54,292.64L540.72,292.32L540.73,292.31L543,292.36" style="vector-effect: non-scaling-stroke; fill: none; stroke: rgb(255, 161, 90); stroke-opacity: 1; stroke-width: 2px; opacity: 1;"/></g><g class="points"/><g class="text"/></g></g></g><g class="overplot"/><path class="xlines-above crisp" d="M0,0" style="fill: none;"/><path class="ylines-above crisp" d="M0,0" style="fill: none;"/><g class="overlines-above"/><g class="xaxislayer-above"><g class="xtick"><text text-anchor="middle" x="0" y="463" transform="translate(50,0)" style="font-family: 'Open Sans', verdana, arial, sans-serif; font-size: 12px; fill: rgb(42, 63, 95); fill-opacity: 1; white-space: pre;">0</text></g><g class="xtick"><text text-anchor="middle" x="0" y="463" transform="translate(158.6,0)" style="font-family: 'Open Sans', verdana, arial, sans-serif; font-size: 12px; fill: rgb(42, 63, 95); fill-opacity: 1; white-space: pre;">100</text></g><g class="xtick"><text text-anchor="middle" x="0" y="463" transform="translate(267.2,0)" style="font-family: 'Open Sans', verdana, arial, sans-serif; font-size: 12px; fill: rgb(42, 63, 95); fill-opacity: 1; white-space: pre;">200</text></g><g class="xtick"><text text-anchor="middle" x="0" y="463" transform="translate(375.8,0)" style="font-family: 'Open Sans', verdana, arial, sans-serif; font-size: 12px; fill: rgb(42, 63, 95); fill-opacity: 1; white-space: pre;">300</text></g><g class="xtick"><text text-anchor="middle" x="0" y="463" transform="translate(484.4,0)" style="font-family: 'Open Sans', verdana, arial, sans-serif; font-size: 12px; fill: rgb(42, 63, 95); fill-opacity: 1; white-space: pre;">400</text></g><g class="xtick"><text text-anchor="middle" x="0" y="463" transform="translate(593,0)" style="font-family: 'Open Sans', verdana, arial, sans-serif; font-size: 12px; fill: rgb(42, 63, 95); fill-opacity: 1; white-space: pre;">500</text></g></g><g class="yaxislayer-above"><g class="ytick"><text text-anchor="end" x="49" y="4.199999999999999" transform="translate(0,429.64)" style="font-family: 'Open Sans', verdana, arial, sans-serif; font-size: 12px; fill: rgb(42, 63, 95); fill-opacity: 1; white-space: pre;">0</text></g><g class="ytick"><text text-anchor="end" x="49" y="4.199999999999999" transform="translate(0,368.61)" style="font-family: 'Open Sans', verdana, arial, sans-serif; font-size: 12px; fill: rgb(42, 63, 95); fill-opacity: 1; white-space: pre;">100</text></g><g class="ytick"><text text-anchor="end" x="49" y="4.199999999999999" transform="translate(0,307.58000000000004)" style="font-family: 'Open Sans', verdana, arial, sans-serif; font-size: 12px; fill: rgb(42, 63, 95); fill-opacity: 1; white-space: pre;">200</text></g><g class="ytick"><text text-anchor="end" x="49" y="4.199999999999999" transform="translate(0,246.55)" style="font-family: 'Open Sans', verdana, arial, sans-serif; font-size: 12px; fill: rgb(42, 63, 95); fill-opacity: 1; white-space: pre;">300</text></g><g class="ytick"><text text-anchor="end" x="49" y="4.199999999999999" transform="translate(0,185.51999999999998)" style="font-family: 'Open Sans', verdana, arial, sans-serif; font-size: 12px; fill: rgb(42, 63, 95); fill-opacity: 1; white-space: pre;">400</text></g><g class="ytick"><text text-anchor="end" x="49" y="4.199999999999999" transform="translate(0,124.49)" style="font-family: 'Open Sans', verdana, arial, sans-serif; font-size: 12px; fill: rgb(42, 63, 95); fill-opacity: 1; white-space: pre;">500</text></g><g class="ytick"><text text-anchor="end" x="49" y="4.199999999999999" transform="translate(0,63.46)" style="font-family: 'Open Sans', verdana, arial, sans-serif; font-size: 12px; fill: rgb(42, 63, 95); fill-opacity: 1; white-space: pre;">600</text></g></g><g class="overaxes-above"/></g></g><g class="polarlayer"/><g class="ternarylayer"/><g class="geolayer"/><g class="funnelarealayer"/><g class="pielayer"/><g class="treemaplayer"/><g class="sunburstlayer"/><g class="glimages"/><defs id="topdefs-fbc70d"><g class="clips"/><clipPath id="legendfbc70d"><rect width="84" height="105" x="0" y="0"/></clipPath></defs><g class="layer-above"><g class="imagelayer"/><g class="shapelayer"/></g><g class="infolayer"><g class="legend" pointer-events="all" transform="translate(603.86,60)"><rect class="bg" shape-rendering="crispEdges" width="84" height="105" x="0" y="0" style="stroke: rgb(68, 68, 68); stroke-opacity: 1; fill: rgb(255, 255, 255); fill-opacity: 1; stroke-width: 0px;"/><g class="scrollbox" transform="" clip-path="url('#legendfbc70d')"><g class="groups"><g class="traces" transform="translate(0,14.5)" style="opacity: 1;"><text class="legendtext" text-anchor="start" x="40" y="4.680000000000001" style="font-family: 'Open Sans', verdana, arial, sans-serif; font-size: 12px; fill: rgb(42, 63, 95); fill-opacity: 1; white-space: pre;">trace 0</text><g class="layers" style="opacity: 1;"><g class="legendfill"/><g class="legendlines"><path class="js-line" d="M5,0h30" style="fill: none; stroke: rgb(99, 110, 250); stroke-opacity: 1; stroke-width: 2px;"/></g><g class="legendsymbols"><g class="legendpoints"/></g></g><rect class="legendtoggle" x="0" y="-9.5" width="79" height="19" style="fill: rgb(0, 0, 0); fill-opacity: 0;"/></g><g class="traces" transform="translate(0,33.5)" style="opacity: 1;"><text class="legendtext" text-anchor="start" x="40" y="4.680000000000001" style="font-family: 'Open Sans', verdana, arial, sans-serif; font-size: 12px; fill: rgb(42, 63, 95); fill-opacity: 1; white-space: pre;">trace 1</text><g class="layers" style="opacity: 1;"><g class="legendfill"/><g class="legendlines"><path class="js-line" d="M5,0h30" style="fill: none; stroke: rgb(239, 85, 59); stroke-opacity: 1; stroke-width: 2px;"/></g><g class="legendsymbols"><g class="legendpoints"/></g></g><rect class="legendtoggle" x="0" y="-9.5" width="79" height="19" style="fill: rgb(0, 0, 0); fill-opacity: 0;"/></g><g class="traces" transform="translate(0,52.5)" style="opacity: 1;"><text class="legendtext" text-anchor="start" x="40" y="4.680000000000001" style="font-family: 'Open Sans', verdana, arial, sans-serif; font-size: 12px; fill: rgb(42, 63, 95); fill-opacity: 1; white-space: pre;">trace 2</text><g class="layers" style="opacity: 1;"><g class="legendfill"/><g class="legendlines"><path class="js-line" d="M5,0h30" style="fill: none; stroke: rgb(0, 204, 150); stroke-opacity: 1; stroke-width: 2px;"/></g><g class="legendsymbols"><g class="legendpoints"/></g></g><rect class="legendtoggle" x="0" y="-9.5" width="79" height="19" style="fill: rgb(0, 0, 0); fill-opacity: 0;"/></g><g class="traces" transform="translate(0,71.5)" style="opacity: 1;"><text class="legendtext" text-anchor="start" x="40" y="4.680000000000001" style="font-family: 'Open Sans', verdana, arial, sans-serif; font-size: 12px; fill: rgb(42, 63, 95); fill-opacity: 1; white-space: pre;">trace 3</text><g class="layers" style="opacity: 1;"><g class="legendfill"/><g class="legendlines"><path class="js-line" d="M5,0h30" style="fill: none; stroke: rgb(171, 99, 250); stroke-opacity: 1; stroke-width: 2px;"/></g><g class="legendsymbols"><g class="legendpoints"/></g></g><rect class="legendtoggle" x="0" y="-9.5" width="79" height="19" style="fill: rgb(0, 0, 0); fill-opacity: 0;"/></g><g class="traces" transform="translate(0,90.5)" style="opacity: 1;"><text class="legendtext" text-anchor="start" x="40" y="4.680000000000001" style="font-family: 'Open Sans', verdana, arial, sans-serif; font-size: 12px; fill: rgb(42, 63, 95); fill-opacity: 1; white-space: pre;">trace 4</text><g class="layers" style="opacity: 1;"><g class="legendfill"/><g class="legendlines"><path class="js-line" d="M5,0h30" style="fill: none; stroke: rgb(255, 161, 90); stroke-opacity: 1; stroke-width: 2px;"/></g><g class="legendsymbols"><g class="legendpoints"/></g></g><rect class="legendtoggle" x="0" y="-9.5" width="79" height="19" style="fill: rgb(0, 0, 0); fill-opacity: 0;"/></g></g></g><rect class="scrollbar" rx="20" ry="3" width="0" height="0" x="0" y="0" style="fill: rgb(128, 139, 164); fill-opacity: 1;"/></g><g class="g-gtitle"><text class="gtitle" x="35" y="30" text-anchor="start" dy="0em" style="font-family: 'Open Sans', verdana, arial, sans-serif; font-size: 17px; fill: rgb(42, 63, 95); opacity: 1; font-weight: normal; white-space: pre;">Posiciones Sistema Reducido Estadistico .1%</text></g><g class="g-xtitle"/><g class="g-ytitle"/></g></svg>