<?xml version="1.0" encoding="UTF-8" standalone="no"?>
<!-- Created with Inkscape (http://www.inkscape.org/) -->

<svg
   width="1920"
   height="1000"
   viewBox="0 0 507.99999 264.58333"
   version="1.1"
   id="svg1"
   inkscape:version="1.4.2 (1:1.4.2+202505120737+ebf0e940d0)"
   sodipodi:docname="Heading.svg"
   xml:space="preserve"
   inkscape:export-filename="Heading.svg"
   inkscape:export-xdpi="96"
   inkscape:export-ydpi="96"
   xmlns:inkscape="http://www.inkscape.org/namespaces/inkscape"
   xmlns:sodipodi="http://sodipodi.sourceforge.net/DTD/sodipodi-0.dtd"
   xmlns="http://www.w3.org/2000/svg"
   xmlns:svg="http://www.w3.org/2000/svg"><sodipodi:namedview
     id="namedview1"
     pagecolor="#ffffff"
     bordercolor="#000000"
     borderopacity="0.25"
     inkscape:showpageshadow="2"
     inkscape:pageopacity="0.0"
     inkscape:pagecheckerboard="0"
     inkscape:deskcolor="#d1d1d1"
     inkscape:document-units="mm"
     inkscape:zoom="0.50331262"
     inkscape:cx="1123.5562"
     inkscape:cy="364.58454"
     inkscape:window-width="1920"
     inkscape:window-height="1008"
     inkscape:window-x="0"
     inkscape:window-y="0"
     inkscape:window-maximized="1"
     inkscape:current-layer="layer1"
     showgrid="false" /><defs
     id="defs1"><inkscape:path-effect
       effect="spiro"
       id="path-effect608"
       is_visible="true"
       lpeversion="1" /><inkscape:path-effect
       effect="spiro"
       id="path-effect607"
       is_visible="true"
       lpeversion="1" /><inkscape:path-effect
       effect="spiro"
       id="path-effect567"
       is_visible="true"
       lpeversion="1" /><inkscape:path-effect
       effect="spiro"
       id="path-effect566"
       is_visible="true"
       lpeversion="1" /><inkscape:path-effect
       effect="spiro"
       id="path-effect12"
       is_visible="true"
       lpeversion="1" /><inkscape:path-effect
       effect="spiro"
       id="path-effect11"
       is_visible="true"
       lpeversion="1" /><inkscape:path-effect
       effect="spiro"
       id="path-effect8"
       is_visible="true"
       lpeversion="1" /></defs><g
     inkscape:label="Layer 1"
     inkscape:groupmode="layer"
     id="layer1"><g
       id="g6"
       transform="matrix(0.11705169,0,0,0.11705169,-4.4403848,230.86021)"><ellipse
         style="fill:#ffc135;fill-opacity:1;stroke-width:0.225926"
         id="path5-0"
         cx="379.52686"
         cy="-201.77423"
         rx="9.5179806"
         ry="4.7046533"
         transform="matrix(0.76003245,0.64988512,-0.55778057,0.82998845,0,0)" /><ellipse
         style="fill:#ffc135;fill-opacity:1;stroke-width:0.225926"
         id="path5"
         cx="355.53525"
         cy="-79.430756"
         rx="9.5179806"
         ry="4.7046533"
         transform="matrix(0.76003245,0.64988512,-0.55778057,0.82998845,0,0)" /><circle
         style="fill:#eaf0f0;fill-opacity:1;stroke-width:0.2"
         id="path2"
         cx="359.30493"
         cy="123.01003"
         r="52.83123" /><ellipse
         style="fill:#ffc135;fill-opacity:1;stroke-width:0.351998"
         id="path3"
         cx="479.65091"
         cy="263.34967"
         rx="31.473804"
         ry="36.827911"
         transform="matrix(0.96983072,-0.24377937,-0.41352107,0.91049455,0,0)" /><ellipse
         style="fill:#ffd88a;fill-opacity:1;stroke-width:0.342783"
         id="path3-2"
         cx="-172.68994"
         cy="-517.89691"
         rx="30.122519"
         ry="36.491631"
         transform="matrix(0.45754745,0.88918521,-0.84564757,-0.53374169,0,0)" /><path
         style="fill:#000000"
         d="m 351.36169,200.78096 c -18.04462,-1.71391 -34.50533,-9.11115 -47.16421,-21.19501 -2.23018,-2.12888 -2.31726,-2.25594 -2.31511,-3.37819 0.002,-1.13243 0.0916,-1.25661 3.09752,-4.29998 l 3.09528,-3.13388 -3.39567,-3.43186 -3.39567,-3.43185 0.14641,-1.09156 c 0.17184,-1.28118 0.79872,-2.01766 2.92824,-3.44024 1.59495,-1.06546 4.41906,-2.09723 5.74047,-2.09723 0.41264,0 0.80801,-0.0934 0.87859,-0.20763 0.0706,-0.1142 -0.40984,-1.03693 -1.0676,-2.05052 -1.87881,-2.89521 -4.73342,-8.94232 -5.901,-12.50049 -5.2503,-16.00007 -3.22376,-33.48016 5.54341,-47.815313 4.24952,-6.948354 11.70995,-14.408783 18.6583,-18.658297 14.35906,-8.781795 31.7683,-10.788951 47.88684,-5.520998 3.60826,1.179272 9.45238,3.949164 12.43816,5.89521 1.01864,0.663926 1.94138,1.209685 2.05052,1.212799 0.10914,0.0031 0.19843,-0.398515 0.19843,-0.89251 0,-2.210485 1.92637,-6.305289 3.78857,-8.053204 0.37183,-0.349011 1.13145,-0.680593 1.7489,-0.76341 l 1.09156,-0.146409 3.43186,3.395669 3.43185,3.39567 3.13388,-3.09528 c 3.04338,-3.005893 3.16756,-3.095345 4.29999,-3.097518 1.12224,-0.0022 1.24931,0.08493 3.37818,2.315104 3.96776,4.156574 7.87175,9.350896 10.85208,14.438892 9.70529,16.568796 12.90389,36.712315 8.8662,55.835825 -4.2174,19.97468 -16.21056,37.56281 -33.43973,49.0398 -9.83454,6.55115 -20.98057,10.72071 -33.10491,12.38403 -3.61465,0.49589 -13.40166,0.72079 -16.90134,0.38838 z m 17.40661,-5.78501 c 12.38809,-1.88543 23.26765,-6.44025 33.3448,-13.96008 4.07429,-3.04034 11.37596,-10.33858 14.4058,-14.39903 7.66366,-10.27049 12.23027,-21.33665 14.13049,-34.24214 0.71312,-4.84322 0.64817,-15.39585 -0.1254,-20.37291 -1.32759,-8.54155 -3.51582,-15.364832 -7.33971,-22.886458 -2.69533,-5.301737 -7.16633,-11.79224 -10.52682,-15.281666 l -1.08483,-1.126458 -1.66276,1.647982 c -0.91452,0.906389 -1.66277,1.768764 -1.66277,1.916387 0,0.147623 1.45581,1.727719 3.23514,3.511325 3.05428,3.061633 3.23513,3.301908 3.23513,4.298159 0,0.893103 -0.18202,1.241369 -1.18461,2.266602 -1.52809,1.56259 -4.43246,3.002593 -6.81158,3.377212 l -1.84232,0.290094 1.10781,1.732994 c 10.41711,16.295917 11.88502,36.425887 3.96118,54.321037 -1.27571,2.88107 -3.76046,7.23617 -4.51568,7.91478 -1.69798,1.52573 -4.32882,0.28879 -4.32882,-2.03528 0,-0.38121 0.52101,-1.55139 1.1578,-2.60039 11.06945,-18.2351 9.70521,-41.73095 -3.39729,-58.510601 -2.51558,-3.221566 -2.27972,-3.150793 -4.17711,-1.253403 l -1.62011,1.620112 0.68712,1.270661 c 1.4371,2.657578 1.91976,4.902533 1.92282,8.943581 0.003,4.17061 -0.38757,6.44342 -1.88512,10.96507 -1.18672,3.58317 -4.01842,9.37263 -6.46331,13.21433 -1.74206,2.73735 -1.88512,3.06384 -1.56506,3.57187 3.51532,5.5799 5.72802,9.92644 7.06218,13.87269 0.80637,2.38514 0.97348,3.2801 1.0711,5.73645 0.14536,3.65781 -0.40765,5.42164 -2.29003,7.30402 -1.88239,1.88239 -3.64621,2.4354 -7.30403,2.29003 -2.45635,-0.0976 -3.35131,-0.26472 -5.73644,-1.0711 -3.9455,-1.3339 -8.29415,-3.54758 -13.87013,-7.06058 -0.50353,-0.31723 -0.82385,-0.18288 -3.36078,1.40963 -13.15414,8.25727 -24.72485,10.68926 -32.69745,6.8725 l -1.95439,-0.93563 -1.59784,1.59784 c -1.87219,1.87218 -1.94301,1.64151 1.27567,4.15484 6.13333,4.78925 14.12665,8.44003 21.66406,9.8946 12.66696,2.44447 25.02377,0.33022 36.43559,-6.23411 2.16271,-1.24404 2.77102,-1.36547 3.90438,-0.77938 1.21867,0.63019 1.66377,2.10921 1.04407,3.4693 -0.41526,0.91139 -4.35635,3.22985 -8.64404,5.0851 -12.0735,5.22412 -25.71939,6.13498 -38.2169,2.55096 -4.51478,-1.29475 -9.19215,-3.30065 -13.30901,-5.70762 -1.97862,-1.15682 -3.62365,-2.06619 -3.65563,-2.02081 -0.032,0.0454 -0.19485,0.8564 -0.36194,1.80228 -0.39428,2.23196 -1.89487,5.1758 -3.38254,6.63584 -0.99463,0.97617 -1.34444,1.15735 -2.23449,1.15735 -0.99625,0 -1.23652,-0.18085 -4.29816,-3.23514 -1.7836,-1.77932 -3.3637,-3.23513 -3.51132,-3.23513 -0.14762,0 -1.01,0.74824 -1.91639,1.66276 l -1.64798,1.66276 1.12646,1.08484 c 4.791,4.61396 13.55842,10.13959 20.83791,13.13299 6.60049,2.71419 14.58991,4.62384 22.225,5.31228 3.08405,0.27808 12.94906,-0.086 16.34828,-0.60334 z m 25.88884,-32.21024 c -1.58316,-1.58317 -0.38309,-4.32955 1.89187,-4.32955 1.49768,0 2.43768,0.9878 2.43768,2.56165 0,1.61456 -0.85088,2.46543 -2.46544,2.46543 -0.90765,0 -1.32139,-0.15481 -1.86411,-0.69753 z m -74.78134,8.23987 c 0.75663,-2.70242 -0.14498,-6.10029 -2.15096,-8.10627 -1.49775,-1.49775 -2.96515,-2.14548 -5.18956,-2.29074 -1.77238,-0.11573 -4.30067,0.2981 -4.30067,0.70394 0,0.29407 10.94233,11.11945 11.12528,11.00637 0.0986,-0.0609 0.33073,-0.6519 0.51591,-1.3133 z m 2.26128,-18.97839 c -1.40268,-2.77657 -1.8224,-5.15658 -1.6628,-9.4288 0.16414,-4.39357 1.02595,-8.02431 3.10486,-13.08049 1.36524,-3.32043 4.04438,-8.29093 6.10237,-11.32145 0.57347,-0.84448 1.04268,-1.65411 1.04268,-1.79917 0,-0.14507 -0.63906,-1.31275 -1.42015,-2.59485 -2.17246,-3.56598 -4.33407,-8.04309 -5.3872,-11.15796 -0.80194,-2.37191 -0.9694,-3.270329 -1.06691,-5.72393 -0.14537,-3.657811 0.40765,-5.421639 2.29003,-7.304023 1.88238,-1.882385 3.64621,-2.435397 7.30402,-2.290029 2.4536,0.09751 3.35203,0.264972 5.72393,1.06691 3.11487,1.053133 7.59199,3.214741 11.15796,5.387203 1.2821,0.781081 2.43148,1.420147 2.55418,1.420147 0.1227,0 1.63385,-0.90512 3.3581,-2.011378 8.30593,-5.328984 16.94353,-8.31497 24.01756,-8.302777 3.34534,0.0058 5.84873,0.523079 8.2216,1.69895 l 1.85209,0.917795 1.64735,-1.627519 c 1.9653,-1.941641 2.08766,-1.655175 -2.01406,-4.715392 -13.35456,-9.963593 -30.3952,-12.8658 -46.41434,-7.904868 -15.82535,4.900916 -28.86843,17.944 -33.76935,33.769341 -4.84928,15.65863 -2.15346,32.47776 7.31666,45.64828 0.84241,1.17157 1.99694,2.65973 2.56562,3.30702 l 1.03397,1.17688 1.67021,-1.67556 1.67022,-1.67557 z m 18.5519,2.57409 c 3.01531,-0.48905 7.0948,-1.81093 10.50101,-3.40266 2.7921,-1.30476 8.1092,-4.37536 8.1092,-4.68303 0,-0.10268 -0.64687,-0.67507 -1.43749,-1.272 -1.25733,-0.9493 -4.1589,-3.44042 -8.65078,-7.42708 l -1.32141,-1.17279 -8.45037,8.44728 c -4.6477,4.646 -8.45037,8.51841 -8.45037,8.60537 0,0.16906 2.60539,0.96276 3.70417,1.12842 1.51358,0.2282 3.71747,0.14605 5.99604,-0.22351 z m 46.63191,-1.84118 c 1.1041,-0.57095 1.4472,-1.66763 1.26994,-4.0592 -0.24949,-3.36615 -2.55407,-9.12292 -5.55304,-13.87131 l -1.12322,-1.77844 -1.31967,1.6454 c -1.70338,2.12383 -8.24995,8.67063 -10.37302,10.37338 l -1.64352,1.31815 1.64427,1.04753 c 3.445,2.19473 9.43197,4.84461 12.49218,5.52913 1.24047,0.27748 3.90248,0.1592 4.60608,-0.20464 z m -51.7195,-11.50425 c 7.76791,-7.77076 8.41567,-8.48766 8.06846,-8.92969 -0.20764,-0.26434 -1.35301,-1.55218 -2.54527,-2.86187 -1.19226,-1.30969 -3.24451,-3.72969 -4.56055,-5.37779 l -2.3928,-2.99654 -1.33553,2.0705 c -1.91115,2.9629 -4.32168,7.96958 -5.39173,11.19862 -1.36219,4.11062 -1.83825,7.02139 -1.66599,10.18646 0.13144,2.41518 0.77094,5.15937 1.20232,5.15937 0.0963,0 3.97581,-3.80208 8.62109,-8.44906 z m 31.4318,-0.5185 c 4.3606,-3.77631 11.58058,-11.40853 11.58058,-12.24181 0,-0.55283 -7.54374,-9.61529 -9.708,-11.66243 l -0.7664,-0.72492 -1.42609,1.44402 c -1.33378,1.35056 -1.3984,1.47461 -0.99834,1.91667 0.23526,0.25996 0.88034,1.42465 1.43352,2.5882 0.9038,1.90102 1.00593,2.33018 1.00724,4.23221 10e-4,1.65966 -0.12093,2.34517 -0.56532,3.175 -1.21708,2.27265 -2.85697,3.17208 -5.77765,3.16885 -1.90106,-0.002 -2.33216,-0.10479 -4.23221,-1.00812 -1.16355,-0.55318 -2.32824,-1.19827 -2.58819,-1.43353 -0.44206,-0.40005 -0.56617,-0.33538 -1.91759,0.99925 l -1.44494,1.42699 0.85813,0.89361 c 2.18458,2.2749 10.93214,9.5522 11.50255,9.56925 0.17912,0.005 1.54834,-1.0491 3.04271,-2.34324 z m -17.73111,-13.18134 c 0.69622,-0.68576 1.26586,-1.33881 1.26586,-1.45124 0,-0.11242 -0.34732,-0.77174 -0.77182,-1.46515 -1.2908,-2.10847 -1.94831,-4.4418 -1.80973,-6.42223 0.13288,-1.89906 0.56453,-2.9358 1.69159,-4.06286 1.12706,-1.12705 2.16379,-1.5587 4.06285,-1.69159 1.98044,-0.13857 4.31376,0.51894 6.42223,1.80973 0.69341,0.42451 1.35273,0.77183 1.46515,0.77183 0.11243,0 0.79525,-0.60582 1.51738,-1.34626 l 1.31297,-1.34625 -1.71979,-1.58437 c -3.63131,-3.34538 -10.21734,-8.68771 -10.71021,-8.68771 -0.86427,0 -9.98878,8.72787 -12.94275,12.38013 -1.4,1.73094 -1.52786,1.98911 -1.24485,2.51354 0.76636,1.42009 9.58612,11.82925 10.02301,11.82925 0.0947,0 0.74189,-0.56107 1.43811,-1.24682 z m 13.38378,-0.3936 c 1.66557,-1.66557 -3.1943,-7.93858 -7.22331,-9.32369 -2.05029,-0.70485 -2.92414,0.30186 -2.02548,2.33344 1.88587,4.26333 7.63244,8.6066 9.24879,6.99025 z m 21.17983,-6.13975 c 4.46704,-7.49901 6.94458,-15.29239 6.55465,-20.61839 -0.14282,-1.950741 -0.87306,-4.938938 -1.20696,-4.938938 -0.0834,0 -3.95294,3.802665 -8.59894,8.450368 l -8.44727,8.45037 1.17278,1.3214 c 3.98666,4.49188 6.47779,7.39345 7.42709,8.65079 0.59692,0.79062 1.16932,1.43749 1.27199,1.43749 0.10268,0 0.92467,-1.23889 1.82666,-2.75309 z m -43.89372,-15.32742 c 1.82596,-1.86788 4.24629,-4.1815 5.37852,-5.14139 l 2.05858,-1.745239 -1.26483,-0.787293 c -4.68837,-2.91826 -10.39583,-5.160802 -13.71377,-5.388341 -3.63129,-0.249028 -4.54766,0.686755 -4.275,4.365532 0.2398,3.235431 2.08985,7.984531 5.14495,13.207151 l 0.98925,1.69109 1.18118,-1.40269 c 0.64966,-0.77148 2.67516,-2.93095 4.50112,-4.79882 z m 36.85434,-5.6643 c 4.62112,-4.619429 8.40205,-8.477768 8.40205,-8.574082 0,-0.460258 -2.75393,-1.088111 -5.31671,-1.212128 -3.27046,-0.158262 -5.73593,0.253764 -10.02913,1.676054 -3.22853,1.069578 -8.23515,3.479961 -11.19847,5.391376 l -2.07034,1.335427 3.26097,2.622433 c 1.79353,1.44234 4.37464,3.64337 5.73579,4.89117 1.36116,1.2478 2.55109,2.26872 2.64431,2.26872 0.0932,0 3.9504,-3.77953 8.57153,-8.39897 z m 30.47957,-15.912535 0.77857,-0.320396 -5.5387,-5.543421 c -3.04629,-3.048882 -5.61023,-5.543422 -5.69763,-5.543422 -0.0874,0 -0.29683,0.460298 -0.46539,1.022885 -0.40845,1.363286 -0.36936,4.159612 0.0756,5.407022 0.8305,2.328318 2.9115,4.344412 5.27907,5.114395 1.26512,0.411445 4.42459,0.333678 5.5685,-0.137063 z"
         id="path1" /><ellipse
         style="fill:#ffc135;fill-opacity:1;stroke-width:0.2"
         id="path4"
         cx="171.86859"
         cy="337.31638"
         rx="3.1541035"
         ry="8.1480999"
         transform="rotate(-44.018199)" /></g><path
       d="m 48.249483,9.4091082 c -2.812087,0 6.45394,1.3888758 4.916249,3.3854788 l -9.99237,12.974511 c -5.587223,7.254684 8.894401,16.360388 19.942313,16.360388 h 378.323505 14.8662 c 2.81205,0 -5.9571,-1.473887 -4.45729,-3.497562 l 9.53295,-12.862826 C 466.83056,18.416043 452.48707,9.4091082 441.43918,9.4091082 H 63.115675 Z"
       style="fill:#eaab1a;fill-opacity:0.522458;stroke-width:0.165221"
       id="path11"
       sodipodi:nodetypes="sssscsssscs" /></g></svg>
